<?xml version="1.0" standalone="no"?>
<!DOCTYPE svg PUBLIC "-//W3C//DTD SVG 20010904//EN"
 "http://www.w3.org/TR/2001/REC-SVG-20010904/DTD/svg10.dtd">
<svg version="1.0" xmlns="http://www.w3.org/2000/svg"
 width="1024.000000pt" height="1024.000000pt" viewBox="0 0 1024.000000 1024.000000"
 preserveAspectRatio="xMidYMid meet">
<metadata>
Created by potrace 1.14, written by Peter Selinger 2001-2017
</metadata>
<g transform="translate(0.000000,1024.000000) scale(0.100000,-0.100000)"
fill="#000000" stroke="none">
<path d="M2 6258 l3 -3983 55 -17 c30 -10 87 -27 127 -38 71 -21 148 -70 111
-70 -10 0 -18 4 -18 8 0 5 -43 12 -96 15 -72 5 -104 12 -130 28 -18 11 -38 18
-44 14 -6 -4 -10 -57 -10 -131 l0 -124 28 -1 c15 0 36 -4 47 -9 13 -6 3 -7
-29 -3 -39 5 -48 3 -44 -8 6 -18 98 -25 108 -9 9 15 107 15 125 0 7 -6 21 -8
31 -4 17 5 17 4 2 -5 -11 -7 -25 -8 -41 -2 -14 5 -28 7 -32 3 -8 -8 -35 -11
-128 -12 -37 0 -67 -5 -67 -10 0 -16 395 -16 605 1 277 21 376 22 500 4 126
-18 213 -35 305 -60 30 -9 100 -22 155 -31 55 -8 120 -19 145 -24 25 -5 80
-15 122 -23 74 -13 112 -27 73 -27 -41 0 -191 23 -208 31 -11 6 -17 5 -17 -1
0 -6 -25 -10 -57 -10 -31 0 -54 -2 -51 -5 15 -15 204 -48 468 -80 113 -14 252
-34 310 -44 133 -24 292 -40 395 -41 44 0 112 -7 150 -15 111 -22 258 -57 280
-65 11 -5 28 -11 39 -14 11 -4 16 -12 12 -21 -3 -8 -1 -17 3 -19 12 -8 156
-34 224 -41 35 -4 55 -10 51 -17 -7 -12 -96 -6 -329 23 -88 11 -187 21 -220
23 -33 3 -231 25 -440 51 -209 25 -517 62 -685 81 -340 38 -514 61 -577 75
-23 5 -147 22 -275 39 -374 48 -408 53 -408 62 0 5 -4 6 -10 3 -5 -3 -18 -1
-27 5 -14 9 -6 10 37 6 45 -4 49 -3 25 5 -16 5 -61 12 -100 15 -38 4 -99 10
-135 14 l-65 8 57 -1 c31 -1 54 2 49 6 -4 4 -96 10 -204 12 l-197 5 0 -915 0
-915 5120 0 5120 0 0 5120 0 5120 -378 0 -378 0 -52 -104 c-53 -105 -85 -147
-134 -172 -54 -28 -46 -68 29 -143 72 -72 82 -111 57 -231 -8 -38 -9 -57 -5
-110 6 -75 1 -100 -27 -131 -27 -30 -32 -32 -93 -31 -35 1 -105 -8 -156 -19
-119 -27 -145 -20 -260 71 -96 76 -124 92 -196 112 -57 15 -73 8 -102 -48 -40
-74 -58 -96 -109 -125 -40 -23 -63 -29 -110 -29 -81 0 -117 24 -156 104 -26
56 -30 74 -31 167 -3 134 21 214 87 294 39 48 41 67 20 170 -8 39 -18 105 -21
148 l-7 77 -4109 0 -4109 0 2 -3982z m1633 3702 c-3 -5 -1 -10 4 -10 6 0 11
-8 11 -17 0 -10 7 -31 15 -47 24 -45 19 -54 -29 -61 -55 -9 -61 -5 -64 37 -3
50 -21 78 -51 79 -23 1 -22 2 8 11 19 5 43 7 53 5 10 -3 16 -1 12 4 -3 5 7 9
21 9 15 0 24 -4 20 -10z m175 -550 c0 -5 12 -10 28 -11 l27 -1 -30 -8 c-54
-14 -106 -19 -100 -9 4 5 0 9 -7 9 -7 1 -2 7 12 15 29 17 70 20 70 5z m60
-287 c9 -8 -25 -23 -55 -23 -47 0 -61 13 -40 38 17 19 20 19 54 5 20 -8 38
-17 41 -20z m7249 -74 c116 -37 300 -118 301 -132 0 -5 7 -15 15 -23 16 -17
21 -119 6 -128 -4 -3 -14 -33 -20 -66 -7 -33 -16 -60 -22 -60 -5 0 -9 -6 -9
-14 0 -8 -6 -21 -13 -28 -6 -7 -23 -37 -36 -65 -14 -29 -27 -53 -30 -53 -8 0
-31 -73 -31 -97 0 -10 -13 -33 -28 -52 -24 -28 -33 -32 -58 -27 -16 4 -38 15
-49 24 -49 41 -116 238 -160 465 -34 176 -33 197 13 250 18 20 69 22 121 6z
m-744 -59 c21 -20 22 -23 8 -103 -15 -91 -59 -190 -85 -195 -21 -4 -37 50 -45
149 -4 63 -3 71 24 108 23 33 52 57 72 60 3 1 14 -8 26 -19z m-295 -120 c0 -5
-4 -10 -10 -10 -5 0 -10 -16 -10 -36 0 -34 -43 -104 -64 -104 -5 0 -14 -8 -21
-17 -11 -15 -13 -15 -25 7 -12 22 -9 108 5 130 3 5 28 12 55 16 28 4 50 10 50
15 0 5 5 9 10 9 6 0 10 -4 10 -10z m-5899 -73 c25 -8 55 -22 67 -32 20 -18 21
-20 4 -39 -9 -11 -11 -16 -4 -12 18 10 37 -14 39 -51 2 -24 -3 -37 -23 -52
-15 -12 -33 -21 -40 -21 -7 0 -17 -7 -22 -16 -20 -35 -172 -21 -193 18 -5 10
-18 18 -29 18 -48 0 -125 120 -101 158 24 39 211 56 302 29z m829 -252 c22
-38 48 -97 59 -130 29 -91 89 -315 97 -360 14 -84 -9 -19 -71 194 -49 172 -74
242 -115 318 -56 107 -33 90 30 -22z m3455 -76 c-5 -7 8 -9 41 -4 38 5 46 4
34 -5 -12 -10 -11 -11 7 -7 16 4 24 -1 28 -14 7 -21 13 -23 35 -9 12 8 10 10
-10 11 -22 0 -21 2 10 13 19 7 46 17 60 21 24 7 24 7 5 -9 -20 -15 -20 -15 5
-16 25 -1 25 -1 5 -17 l-20 -16 20 7 c11 4 41 11 67 15 45 8 47 7 36 -12 -9
-18 -8 -19 13 -13 13 4 33 10 44 13 l20 5 -20 -16 c-20 -17 -19 -17 8 -11 21
4 27 2 21 -6 -5 -9 1 -10 21 -6 37 6 63 -2 43 -14 -10 -7 -9 -9 5 -9 9 0 17
-3 17 -7 0 -5 25 -6 56 -5 39 3 54 1 50 -7 -10 -16 61 -14 120 4 65 19 84 20
58 0 -18 -14 -17 -14 16 -9 19 3 51 10 70 15 19 5 63 9 98 9 60 0 62 -1 52
-20 -9 -17 -8 -20 12 -20 49 -1 196 -89 183 -110 -3 -4 16 -33 41 -63 25 -31
43 -61 39 -67 -3 -5 1 -10 10 -10 9 0 13 -4 10 -10 -3 -5 -1 -10 5 -10 7 0 10
-6 7 -14 -4 -9 1 -16 11 -19 15 -3 15 -5 -2 -12 -14 -6 -23 -4 -30 9 -59 100
-117 174 -159 202 -62 43 -101 54 -219 61 -88 5 -100 4 -134 -16 -25 -15 -33
-17 -25 -7 9 10 10 16 2 16 -20 0 -96 -34 -111 -50 -8 -9 -11 -10 -6 -3 12 19
-9 16 -28 -3 -9 -8 -14 -20 -11 -25 4 -5 0 -6 -8 -3 -8 3 -19 -2 -26 -10 -7
-8 -18 -13 -25 -10 -8 3 -16 -3 -20 -12 -6 -16 -8 -16 -22 2 -9 10 -13 14 -10
7 7 -14 -48 -56 -59 -45 -5 4 -5 2 -2 -4 6 -11 -19 -29 -35 -26 -4 1 -10 -9
-14 -23 -3 -14 -10 -25 -14 -25 -4 0 -11 -10 -15 -22 -4 -15 -8 -18 -12 -10
-4 10 -8 10 -20 0 -8 -7 -22 -13 -32 -14 -13 -2 -12 0 3 12 11 8 16 14 11 14
-5 0 1 10 12 23 37 41 37 53 0 18 -47 -44 -48 -31 -2 25 19 23 35 49 35 58 0
9 5 15 12 14 7 -2 13 3 14 10 1 6 2 17 3 23 0 5 6 7 13 3 7 -5 8 -3 3 5 -5 9
-17 4 -41 -20 -41 -39 -45 -28 -7 15 24 27 23 26 -10 -3 -20 -19 -37 -29 -37
-22 0 6 -15 -2 -32 -18 -18 -17 -38 -31 -44 -31 -6 0 -17 -6 -23 -14 -6 -7
-39 -33 -74 -56 -40 -29 -55 -35 -42 -20 l20 23 -20 -7 c-46 -18 -48 -16 -10
8 22 14 46 24 54 21 7 -3 30 9 50 27 35 31 44 47 31 58 -4 3 8 17 25 32 26 22
31 24 31 8 0 -10 -6 -16 -12 -13 -7 2 -14 0 -18 -5 -3 -5 4 -8 14 -7 21 1 63
35 55 43 -3 3 0 11 6 19 8 9 8 13 1 13 -6 0 -14 -4 -17 -10 -3 -5 -14 -10 -23
-9 -13 0 -12 2 4 9 21 8 42 30 29 30 -3 0 -28 -12 -56 -26 -77 -38 -68 -24 14
25 39 23 63 39 52 35 -11 -4 -33 -9 -50 -10 -16 -1 -34 -3 -38 -3 -5 -1 -6 -5
-3 -9 6 -10 -56 -42 -82 -43 -11 0 -13 -2 -4 -6 10 -4 8 -8 -5 -18 -10 -7 -18
-19 -18 -26 0 -6 -13 -13 -30 -15 l-30 -3 33 21 c18 11 31 22 28 25 -7 7 -87
-37 -82 -46 3 -4 -6 -13 -20 -20 -14 -6 -22 -16 -19 -21 4 -6 -1 -7 -11 -3
-12 4 -15 3 -10 -5 5 -8 1 -10 -10 -5 -11 4 -13 8 -6 11 7 2 9 9 6 14 -4 7 -2
8 5 4 6 -4 14 -1 17 8 7 18 103 76 166 100 60 22 64 30 32 51 -18 12 -29 13
-38 6 -9 -7 -16 -7 -26 2 -10 9 -11 9 -6 -1 5 -7 -2 -16 -18 -22 -28 -10 -59
-3 -50 11 3 5 -2 6 -11 2 -12 -4 -13 -8 -5 -13 9 -6 7 -11 -6 -19 -17 -11 -16
-12 8 -8 15 2 25 0 22 -4 -8 -13 10 -11 24 3 7 7 12 9 12 5 0 -4 18 2 40 13
47 24 47 24 47 5 0 -9 -12 -18 -26 -21 -14 -2 -47 -15 -73 -28 -37 -18 -48
-20 -52 -10 -3 8 0 14 6 14 6 0 8 3 5 7 -9 8 -58 -18 -52 -28 3 -4 -18 -15
-47 -23 -48 -15 -112 -45 -97 -46 4 0 23 7 42 15 42 17 61 19 52 5 -7 -12 -3
-12 19 -4 9 3 13 10 10 15 -3 5 -1 9 5 9 5 0 18 3 28 7 27 9 -23 -29 -72 -56
-35 -19 -36 -21 -12 -18 32 5 36 -8 7 -23 -14 -8 -20 -8 -20 0 0 7 -10 5 -27
-3 -48 -25 -77 -31 -67 -16 7 12 5 12 -9 1 -9 -8 -21 -11 -27 -7 -5 3 -10 2
-10 -3 0 -4 -18 -19 -41 -31 -57 -32 -42 -37 19 -6 69 34 87 32 21 -3 -30 -16
-76 -43 -104 -60 l-50 -31 53 3 c29 2 58 8 65 12 7 5 5 2 -5 -8 -10 -9 -18
-19 -18 -22 0 -3 35 -3 78 -1 56 4 72 3 57 -5 -18 -9 -18 -10 5 -6 14 2 34 7
44 11 13 6 17 5 13 -2 -4 -6 -1 -14 5 -16 7 -3 -17 -4 -55 -2 -37 1 -69 -1
-72 -5 -3 -5 5 -6 17 -2 16 4 19 2 13 -8 -6 -10 -1 -12 23 -7 21 4 32 2 36 -8
3 -9 -1 -16 -12 -17 -31 -2 -67 3 -78 13 -7 6 -20 2 -35 -11 -60 -50 -70 -60
-61 -60 5 0 22 12 37 26 15 14 34 23 42 20 9 -4 11 -2 7 6 -5 8 -2 9 10 5 10
-4 25 -7 34 -7 15 0 15 -2 2 -10 -27 -18 6 -10 68 15 61 25 144 36 112 15 -8
-5 -26 -10 -40 -11 -20 -1 -19 -3 10 -10 33 -7 32 -7 -10 -4 -46 3 -170 -32
-170 -48 0 -4 4 -6 9 -2 5 3 12 1 16 -5 8 -13 -18 -13 -32 1 -7 7 -31 4 -81
-13 -54 -19 -68 -21 -64 -9 4 10 1 12 -9 7 -16 -9 29 33 57 52 10 7 -12 -3
-50 -22 -70 -36 -100 -38 -72 -7 15 16 14 18 -4 16 -11 -1 -23 -4 -26 -8 -11
-11 -26 -8 -19 3 10 16 -1 12 -15 -6 -8 -8 -9 -14 -4 -13 21 4 26 -2 14 -16
-15 -18 -34 -20 -24 -2 4 6 -1 5 -12 -4 -10 -9 -27 -15 -36 -14 -10 2 -15 -2
-12 -10 3 -7 -2 -15 -10 -18 -9 -4 -16 -13 -16 -22 0 -18 -12 -19 -28 -3 -17
17 -15 33 2 19 11 -9 15 -6 20 16 4 16 9 36 13 47 3 12 1 16 -6 12 -7 -4 -11
1 -11 13 0 12 4 21 10 21 5 0 18 17 29 38 20 40 61 82 61 64 0 -7 -4 -12 -9
-12 -8 0 -71 -95 -71 -107 0 -6 27 23 63 69 12 15 27 28 32 28 6 0 28 16 50
35 22 20 57 45 77 55 62 33 52 41 -14 10 -59 -26 -91 -31 -58 -9 11 8 9 9 -9
4 -17 -5 -21 -4 -16 5 4 7 17 9 31 6 31 -8 161 52 203 93 34 34 27 37 -31 17
-21 -8 -35 -10 -32 -5 7 12 -13 11 -38 -2 -18 -10 -20 -9 -15 5 5 12 0 16 -16
16 -19 1 -18 3 8 15 25 12 26 14 5 9 -14 -4 -33 -15 -43 -25 -16 -17 -37 -23
-77 -20 -12 0 -12 -1 -1 -6 11 -4 11 -7 0 -14 -12 -7 -12 -9 0 -9 11 0 11 -3
1 -15 -7 -8 -16 -13 -19 -10 -4 2 -8 -3 -8 -11 0 -11 6 -9 23 7 13 12 21 25
19 30 -13 20 68 35 87 15 10 -9 20 -11 29 -5 20 13 29 11 23 -5 -6 -15 -54
-28 -54 -15 0 5 -8 5 -17 2 -14 -6 -12 -9 12 -20 27 -12 27 -13 5 -10 -30 6
-105 -32 -105 -53 0 -8 -10 -19 -22 -26 -13 -6 -20 -13 -17 -16 3 -3 -9 -16
-25 -28 -22 -15 -31 -17 -31 -8 -1 8 -8 4 -19 -9 -11 -13 -23 -23 -27 -23 -4
0 1 9 10 19 10 11 13 20 7 22 -6 2 5 21 24 42 19 21 35 43 35 50 0 8 3 8 9 -2
5 -8 11 -9 15 -3 3 5 0 12 -8 15 -9 4 -23 -8 -37 -28 -15 -21 -26 -30 -31 -22
-3 6 1 16 9 22 13 10 13 14 3 20 -8 5 -11 4 -7 -2 4 -6 0 -14 -9 -17 -8 -3
-13 -9 -10 -14 2 -4 -4 -13 -15 -20 -15 -10 -19 -10 -19 1 0 7 5 18 12 25 6 6
9 14 6 17 -2 3 -20 -24 -38 -59 -35 -66 -49 -81 -30 -31 6 15 9 30 6 32 -2 3
-7 -5 -11 -16 -7 -24 -22 -28 -22 -6 0 8 4 12 9 9 4 -3 8 2 8 10 0 24 -21 30
-38 11 -13 -14 -13 -16 -2 -10 8 5 0 -5 -17 -22 -18 -17 -33 -36 -33 -43 0 -6
-4 -8 -10 -5 -5 3 -10 0 -10 -7 0 -8 -7 -23 -15 -34 -15 -18 -15 -18 -13 10 4
37 -23 44 -39 10 -6 -13 -8 -22 -4 -19 4 2 8 -2 8 -10 0 -8 -5 -13 -11 -12 -6
1 -13 -11 -14 -28 -2 -16 -10 -34 -18 -38 -8 -4 -14 -20 -14 -35 0 -14 -8 -46
-17 -71 -13 -34 -18 -40 -23 -25 -5 12 -10 1 -17 -36 -9 -45 -9 -51 2 -37 12
17 13 16 11 -7 0 -13 -5 -22 -10 -19 -5 4 -7 -22 -4 -61 7 -82 -7 -97 -18 -18
-6 49 -8 53 -14 27 -3 -16 -2 -37 3 -46 6 -9 6 -56 2 -115 l-9 -99 -8 59 c-12
88 -24 87 -21 -2 1 -51 -1 -68 -6 -52 l-8 25 -5 -30 c-4 -21 -6 -14 -7 25 -1
30 -6 64 -11 75 l-9 20 -2 -20 c-1 -11 -1 -29 0 -39 2 -28 -12 -10 -26 32 -10
31 -12 32 -8 7 3 -16 7 -48 10 -70 4 -36 3 -36 -6 8 -6 26 -15 47 -21 47 -5 0
-7 4 -4 9 3 5 -1 24 -9 42 l-15 34 6 -40 c3 -22 15 -71 25 -110 22 -79 25
-109 9 -85 -5 8 -10 25 -10 38 0 12 -5 22 -11 22 -5 0 -7 5 -4 10 3 6 2 10 -4
10 -5 0 -13 -21 -16 -47 -3 -27 -18 -70 -32 -97 -14 -28 -26 -60 -28 -73 -3
-28 -29 -60 -50 -60 -20 0 -19 7 6 37 18 23 19 23 9 3 -7 -15 -7 -23 -1 -23
15 0 32 36 25 53 -3 8 -1 18 5 22 6 3 11 12 11 18 0 7 -16 -6 -36 -28 -20 -22
-33 -32 -30 -23 5 15 3 16 -14 5 -11 -6 -20 -16 -20 -22 0 -5 -14 -23 -30 -39
l-30 -29 0 26 c0 14 -4 29 -10 32 -5 3 -10 0 -10 -8 0 -8 -6 -17 -14 -20 -7
-3 -13 0 -13 6 1 37 -4 57 -13 52 -6 -4 -7 -11 -4 -17 4 -6 2 -8 -4 -5 -5 4
-8 16 -5 27 3 11 1 20 -4 20 -6 0 -8 12 -5 26 4 20 2 25 -8 19 -10 -6 -12 -1
-8 18 3 15 1 24 -3 21 -11 -6 -12 8 -1 22 4 5 -1 1 -10 -9 -18 -19 -25 -42
-10 -33 4 3 13 -9 19 -25 10 -25 9 -31 -7 -39 -20 -11 -50 13 -30 25 5 3 10 1
10 -6 0 -7 3 -10 6 -6 3 3 2 13 -4 22 -8 16 -11 15 -25 -5 -10 -14 -17 -18
-22 -10 -4 6 -13 9 -20 6 -8 -3 -16 0 -19 7 -3 7 -3 0 0 -14 6 -29 -13 -50
-26 -29 -5 8 -9 7 -14 -5 -9 -25 -6 -43 4 -20 7 16 9 17 9 3 1 -20 -15 -32
-24 -18 -9 14 -25 13 -25 -2 -1 -20 -38 -60 -50 -53 -5 3 -7 0 -4 -8 8 -23
-14 -70 -31 -63 -8 3 -14 2 -13 -2 2 -13 -24 -72 -32 -72 -5 0 -7 -11 -6 -25
3 -21 1 -23 -15 -14 -11 6 -19 6 -19 0 0 -5 7 -11 15 -15 15 -6 10 -36 -7 -36
-5 0 -6 5 -2 12 4 7 3 8 -4 4 -6 -4 -8 -14 -5 -24 6 -15 5 -15 -10 -3 -15 12
-17 11 -17 -3 0 -9 6 -16 13 -16 9 0 9 -2 -1 -9 -12 -7 -12 -12 0 -30 7 -12
20 -23 28 -26 8 -3 21 -14 28 -25 12 -20 11 -20 -8 -10 -18 10 -20 8 -20 -18
0 -15 -5 -33 -12 -40 -7 -7 -8 -12 -2 -12 6 0 15 5 20 10 7 7 10 5 9 -7 0 -10
-3 -23 -7 -28 -8 -15 3 -86 13 -79 12 7 11 -3 -1 -26 -9 -16 -8 -18 6 -13 14
5 16 2 10 -20 -4 -17 -2 -27 5 -27 6 0 9 -7 5 -15 -7 -20 4 -46 17 -38 6 4 8
-2 5 -15 -7 -25 18 -19 26 6 3 10 3 0 0 -21 -4 -28 -1 -39 10 -43 11 -4 14
-14 11 -33 l-5 -26 12 25 11 25 4 -23 c3 -13 9 -20 15 -16 7 5 9 1 5 -9 -4
-10 -3 -32 1 -50 l7 -32 6 40 c6 39 6 39 8 -13 0 -33 5 -51 11 -47 16 10 12
-35 -5 -51 -27 -27 -15 -94 20 -108 12 -4 14 0 10 22 -3 15 -2 21 1 15 3 -7
12 -13 21 -13 8 0 25 -8 38 -18 22 -18 23 -20 7 -35 -15 -16 -15 -17 3 -17 20
0 82 -68 77 -84 -1 -4 2 -14 9 -22 6 -8 9 -21 5 -29 -4 -10 1 -15 14 -15 23 0
22 -19 0 -37 -16 -12 -15 -15 16 -29 19 -8 20 -13 12 -34 -17 -41 -18 -70 -3
-70 9 0 12 -6 9 -15 -4 -8 -2 -15 2 -15 5 0 22 -11 39 -24 28 -22 29 -25 14
-43 -28 -32 -30 -50 -6 -58 13 -3 17 -8 10 -11 -7 -3 -29 -21 -50 -41 -30 -27
-34 -34 -18 -33 45 5 51 0 25 -20 -21 -16 -22 -20 -7 -20 10 0 15 -4 12 -10
-4 -6 5 -10 19 -10 14 0 26 -4 26 -8 0 -18 -26 -62 -37 -62 -6 0 -15 -5 -19
-11 -5 -9 1 -10 22 -5 l28 7 -19 -22 c-17 -19 -18 -21 -3 -16 10 3 20 2 23 -2
3 -5 -2 -12 -11 -15 -9 -4 -14 -9 -11 -13 4 -3 -1 -12 -11 -20 -16 -14 -16
-14 3 -9 16 5 14 1 -9 -19 -15 -15 -26 -28 -24 -30 4 -5 94 52 153 97 l30 23
-27 -37 c-16 -20 -28 -42 -28 -48 0 -6 -4 -8 -10 -5 -5 3 -10 2 -10 -4 0 -5
-11 -22 -25 -37 -52 -57 -22 -46 38 14 34 34 66 62 70 62 4 0 -20 -34 -54 -75
-34 -41 -66 -75 -70 -75 -5 0 -18 -19 -30 -41 -15 -31 -18 -44 -9 -53 8 -8 9
-6 4 9 -4 11 -3 17 1 13 5 -5 20 12 34 37 14 24 59 81 100 125 60 66 76 79 87
69 13 -10 10 -17 -15 -43 -16 -17 -35 -42 -41 -56 -5 -14 -19 -39 -29 -55 -10
-17 -18 -49 -18 -72 0 -22 -8 -55 -17 -73 -9 -18 -16 -52 -16 -76 0 -45 -8
-74 -20 -74 -4 0 -3 23 3 50 10 52 4 75 -14 50 -13 -19 -3 21 16 65 17 39 27
95 17 95 -5 0 -16 -16 -25 -35 -9 -19 -21 -35 -26 -35 -6 0 -15 -18 -21 -40
-6 -22 -15 -40 -21 -40 -6 0 -8 -9 -4 -19 3 -11 1 -22 -5 -26 -6 -4 -9 -14 -6
-22 3 -8 1 -11 -4 -8 -6 3 -11 3 -11 -2 -7 -41 -5 -53 9 -53 13 0 13 -3 -1
-18 -10 -10 -17 -26 -17 -35 0 -9 -4 -19 -10 -22 -16 -10 -12 -25 8 -26 9 0
-5 -10 -33 -23 -27 -12 -44 -25 -37 -27 22 -7 21 -43 -2 -62 -21 -18 -21 -19
19 -13 39 5 39 5 19 -12 -12 -9 -30 -23 -40 -30 -16 -11 -14 -12 21 -6 22 3
51 6 65 6 14 0 33 4 42 9 10 5 18 6 18 2 0 -12 -33 -39 -70 -58 -34 -18 -40
-30 -10 -20 11 3 20 2 20 -3 0 -5 14 -6 31 -4 22 3 30 1 25 -7 -4 -6 -15 -11
-24 -11 -10 0 -28 -7 -41 -16 -18 -13 -20 -18 -10 -25 8 -5 19 -9 24 -9 6 0 3
5 -5 10 -9 6 -10 10 -3 10 6 0 15 -5 18 -11 4 -6 14 -7 24 -4 38 16 71 23 66
15 -3 -5 -24 -14 -47 -21 -41 -11 -113 -57 -104 -67 3 -2 21 6 42 18 20 13 46
24 58 26 11 1 30 5 41 9 11 4 -11 -23 -49 -59 -38 -37 -66 -69 -63 -72 3 -3
14 4 24 15 9 12 23 21 29 21 6 0 17 7 24 15 16 19 69 46 98 50 24 4 31 -19 9
-32 -14 -8 -47 -68 -47 -85 0 -15 18 -8 24 10 5 16 2 -20 -10 -112 -3 -22 -12
-55 -20 -74 -7 -19 -12 -38 -9 -42 3 -4 -3 -14 -12 -21 -15 -12 -16 -12 -10 4
9 24 0 21 -14 -4 -8 -16 -8 -20 1 -14 9 6 10 -5 5 -41 -7 -54 -15 -71 -15 -32
0 14 -7 28 -15 31 -17 7 -20 3 -30 -41 -7 -32 -6 -33 13 -23 19 10 19 9 9 -18
l-10 -28 -34 19 c-19 11 -33 15 -33 9 0 -6 5 -11 10 -11 6 0 10 -7 10 -15 0
-8 -4 -15 -10 -15 -5 0 -10 4 -10 10 0 6 -11 5 -26 -2 -15 -7 -22 -14 -17 -15
6 -2 8 -16 6 -31 -3 -26 -3 -26 7 -4 5 13 8 28 5 33 -4 5 1 6 9 3 12 -5 13
-11 6 -24 -7 -13 -7 -21 0 -25 5 -3 10 -1 10 6 0 10 3 10 12 1 10 -10 10 -15
-2 -22 -8 -5 -22 -8 -30 -5 -16 4 -36 -8 -59 -37 -20 -27 2 -22 33 7 21 20 28
22 31 10 3 -8 7 -22 10 -31 3 -11 0 -14 -13 -10 -12 3 -28 -10 -55 -45 -21
-27 -43 -47 -48 -44 -5 4 -9 -3 -9 -14 0 -12 -5 -21 -10 -21 -16 0 0 52 21 73
25 23 25 45 1 24 -10 -10 -22 -17 -25 -17 -12 0 -7 45 8 64 10 14 12 23 4 32
-7 8 -7 14 1 19 5 3 10 11 10 16 0 6 -5 7 -11 3 -18 -11 -1 57 23 89 11 16 18
30 16 31 -1 1 -22 8 -46 16 -31 10 -48 10 -65 3 -13 -6 -38 -9 -56 -7 -49 6
-97 -24 -99 -60 0 -5 -6 -13 -14 -18 -10 -7 -9 -8 4 -4 20 6 25 -9 7 -20 -8
-5 -8 -9 1 -14 7 -4 9 -13 5 -19 -9 -16 -38 7 -31 26 3 7 1 13 -4 13 -6 0 -10
-10 -10 -23 0 -13 -5 -28 -11 -34 -7 -7 -3 -9 15 -6 30 6 31 3 11 -43 -8 -19
-22 -49 -30 -68 -18 -41 -19 -60 -3 -50 7 4 8 3 4 -4 -8 -13 -36 -5 -36 11 0
7 -12 -5 -27 -26 -29 -41 -45 -35 -19 6 9 13 13 27 9 30 -3 4 1 7 10 7 10 0
17 8 17 18 -1 12 -10 6 -35 -22 -19 -22 -35 -35 -35 -30 0 5 -5 2 -10 -6 -12
-18 -3 34 11 61 4 9 6 25 3 36 -3 12 -1 24 5 27 6 4 11 12 11 18 0 7 -6 6 -15
-2 -21 -17 -19 -1 3 23 17 20 17 20 -18 2 -35 -18 -35 -18 -17 2 29 33 19 38
-15 7 -36 -33 -29 -17 17 41 18 22 37 50 44 63 12 22 11 23 -8 12 -12 -6 -21
-15 -21 -19 0 -5 -7 -12 -16 -15 -8 -3 -12 -2 -9 4 3 6 2 10 -4 10 -15 0 -21
-14 -11 -30 11 -17 2 -40 -17 -40 -8 0 -12 -4 -9 -8 3 -5 -4 -21 -16 -38 l-20
-29 5 30 c3 17 8 39 12 50 3 11 -6 -2 -20 -28 -14 -26 -23 -53 -19 -59 4 -6 3
-8 -3 -5 -10 6 -29 -37 -25 -56 3 -9 -25 -64 -35 -70 -20 -13 -4 55 25 112 19
34 32 65 29 68 -3 3 -18 -19 -33 -49 -16 -29 -34 -62 -41 -73 -7 -11 -15 -27
-19 -35 -17 -41 -23 -58 -32 -90 -6 -21 -10 -27 -11 -15 -1 11 8 51 19 89 20
71 20 94 0 57 -6 -12 -15 -19 -19 -17 -4 3 -13 -6 -19 -19 -9 -19 -9 -25 0
-25 8 0 6 -7 -5 -17 -9 -9 -19 -14 -22 -11 -10 10 32 106 65 148 17 22 33 46
34 53 1 6 10 27 19 45 13 23 14 32 5 32 -7 0 6 17 29 38 63 59 205 95 401 102
9 0 11 7 7 20 -5 15 -3 18 9 14 13 -5 16 2 17 32 1 22 1 42 1 45 0 3 3 22 8
42 5 24 4 37 -2 37 -6 0 -8 14 -4 34 8 42 -2 69 -21 61 -13 -4 -14 1 -8 31 5
31 4 36 -9 31 -19 -7 -20 -3 -6 23 9 17 8 18 -7 13 -15 -6 -16 -4 -5 9 7 9 15
27 18 39 3 13 8 34 11 47 4 17 2 21 -10 16 -13 -5 -14 1 -5 38 5 24 14 51 19
61 16 30 5 29 -39 -3 -45 -32 -45 -31 -10 48 23 51 18 61 -16 38 -29 -19 -42
-7 -21 20 15 18 15 18 8 -1 -3 -11 -3 -17 1 -14 4 4 9 21 11 38 2 17 13 41 25
53 11 12 19 27 16 33 -2 5 3 18 12 28 31 35 3 26 -37 -13 -22 -22 -43 -40 -45
-40 -5 0 44 91 53 100 52 50 123 130 114 130 -6 0 -19 -7 -27 -16 -9 -8 -25
-17 -37 -19 -12 -3 -29 -10 -38 -17 -84 -67 -78 -30 9 55 46 44 62 66 48 62
-13 -4 -32 -15 -42 -24 -19 -16 -19 -15 -1 12 9 15 13 27 7 27 -6 0 -15 -6
-19 -12 -14 -22 -53 -52 -53 -40 0 6 42 52 93 103 96 96 90 107 -10 16 -32
-28 -69 -61 -82 -72 l-24 -20 11 22 c7 12 22 30 35 40 13 10 27 25 32 33 4 8
-4 4 -18 -9 -55 -50 -25 -3 38 59 70 69 85 96 33 57 -56 -41 -64 -42 -35 -4
16 21 25 42 21 49 -5 7 -2 9 9 5 11 -4 14 -2 11 7 -3 7 11 25 31 40 20 16 34
30 32 33 -7 6 -107 -47 -131 -69 -24 -22 -37 -23 -30 -3 5 11 2 13 -12 8 -11
-4 -15 -3 -11 4 4 6 16 13 27 16 11 3 18 1 14 -4 -3 -5 0 -9 5 -9 6 0 11 7 11
15 0 7 6 18 13 22 6 4 21 19 32 32 l20 24 -25 -13 c-14 -7 -38 -22 -55 -34
l-30 -21 24 35 c14 19 38 47 55 62 33 29 32 33 -8 18 -42 -16 -30 -5 42 38 38
23 74 48 82 56 11 14 8 15 -29 1 -23 -8 -39 -10 -36 -5 3 6 1 10 -5 10 -6 0
-18 7 -26 15 -14 13 -12 16 13 25 63 23 83 33 79 38 -3 2 -26 -1 -52 -8 -38
-11 -47 -11 -54 1 -6 9 -3 20 8 32 11 13 12 17 3 15 -24 -5 -20 30 5 47 28 18
31 35 7 35 -14 0 -14 2 2 20 10 11 25 20 34 21 9 0 34 9 56 20 22 11 31 17 20
14 -10 -3 -40 -8 -65 -11 -47 -5 -42 0 29 27 19 8 21 12 11 24 -7 8 -23 15
-37 15 -17 0 -22 4 -16 13 4 6 9 22 10 34 3 17 -3 23 -27 28 -25 5 -29 10 -20
20 13 16 4 58 -11 50 -5 -4 -9 1 -9 9 0 24 -15 27 -53 11 -33 -14 -35 -13 -40
7 -4 12 3 32 15 49 22 29 18 53 -4 31 -7 -7 -17 -12 -22 -12 -6 0 5 13 24 30
19 16 30 29 25 30 -6 0 -15 -4 -21 -10 -11 -11 -11 20 1 63 8 31 3 43 -15 32
-8 -5 -8 -11 1 -21 7 -8 7 -14 1 -14 -5 0 -15 7 -22 15 -10 12 -10 19 -2 27 7
7 12 19 12 28 -1 8 -27 -13 -61 -50 -47 -50 -57 -58 -45 -32 13 24 13 32 4 33
-10 0 -10 2 0 6 6 2 12 14 12 24 0 11 5 17 10 14 6 -3 10 -2 10 4 0 5 3 18 6
28 4 11 -10 2 -36 -22 l-43 -40 23 40 c13 22 30 49 39 59 15 19 15 19 -19 0
-24 -14 -34 -27 -32 -40 2 -14 0 -16 -6 -6 -7 11 -14 8 -31 -14 -11 -14 -21
-31 -21 -35 0 -5 -5 -9 -11 -9 -6 0 0 17 12 38 17 27 18 33 6 23 -9 -7 -37
-56 -62 -109 -25 -52 -47 -93 -49 -91 -3 2 15 45 40 94 24 50 44 97 44 105 0
8 9 21 20 27 10 7 24 22 31 34 11 22 11 22 -22 -2 -35 -24 -34 -22 20 49 51
66 27 63 -37 -4 -31 -33 -95 -93 -142 -133 l-85 -74 105 104 c118 117 140 142
140 165 0 10 6 14 14 11 9 -3 21 4 30 19 9 13 12 24 6 24 -5 0 -10 -5 -10 -11
0 -5 -4 -8 -9 -5 -4 3 -17 -1 -27 -9 -29 -22 -40 -18 -13 5 28 23 22 26 -15 7
-14 -8 -22 -18 -18 -22 4 -5 1 -5 -6 -1 -17 10 -11 18 42 51 66 42 49 42 -22
0 -33 -19 -65 -35 -70 -35 -5 0 -16 -8 -23 -17 -11 -15 -11 -16 1 -5 20 17 35
15 20 -3 -7 -9 -20 -13 -29 -10 -10 3 -36 -11 -65 -35 -26 -22 -51 -40 -54
-40 -6 0 -10 -4 58 55 30 26 77 58 105 72 27 14 61 38 75 53 14 15 32 29 40
33 8 3 -2 6 -22 6 -21 1 -38 -3 -38 -9 0 -5 -5 -10 -12 -10 -9 0 -9 3 0 12 7
7 12 16 12 21 0 16 -76 -48 -167 -141 -51 -51 -96 -91 -101 -88 -5 3 -54 -38
-108 -92 -55 -54 -78 -75 -51 -47 26 28 45 54 42 57 -9 8 98 99 111 94 6 -2
49 34 95 80 46 46 79 84 74 84 -6 0 -46 -30 -90 -65 l-80 -66 64 60 c35 32 83
69 107 82 24 12 42 24 39 27 -3 3 17 18 44 33 61 35 76 55 35 45 -20 -4 -24
-4 -15 3 11 7 6 10 -20 14 -32 4 -31 4 9 5 23 1 42 7 42 13 0 6 9 9 20 6 11
-3 20 -1 20 4 0 5 -11 9 -25 9 -14 0 -25 -4 -25 -10 0 -5 -10 -10 -22 -10
l-23 0 25 19 24 19 -34 10 c-19 6 -27 11 -17 11 9 1 17 5 17 10 0 6 19 14 42
18 23 5 43 15 45 23 3 9 1 11 -4 5 -15 -20 -62 -16 -74 6 -9 19 -8 20 10 14
16 -5 20 -3 15 9 -3 9 -2 16 3 16 4 0 14 9 20 20 12 17 9 20 -27 31 -31 9 -37
15 -29 25 11 13 39 8 51 -10 4 -6 10 -7 14 -3 16 15 -24 37 -91 51 l-70 13 77
-3 c70 -4 77 -3 83 16 3 11 3 24 0 30 -3 5 1 10 9 10 34 0 13 19 -41 38 l-58
20 65 -6 65 -5 -28 27 c-27 25 -27 26 -5 23 17 -1 22 2 20 16 -2 12 7 21 27
28 l31 11 -23 19 -22 20 25 -6 c21 -5 22 -4 7 5 -23 15 -13 30 21 30 20 0 23
3 14 12 -21 21 -14 38 16 38 26 1 26 1 8 15 -17 13 -17 15 -4 15 9 0 20 -4 23
-10 3 -5 14 -10 23 -10 12 1 8 6 -10 16 -32 17 -36 26 -10 23 31 -3 35 1 21
18 -13 15 -12 16 9 11 19 -5 21 -4 12 7 -16 19 -4 52 22 58 14 4 19 11 15 21
-4 9 -2 16 3 16 6 0 10 6 10 13 0 7 6 19 12 25 7 7 18 30 23 50 6 20 16 37 22
37 6 0 15 4 20 9 5 5 3 6 -4 2 -24 -13 -13 16 26 73 33 49 37 60 28 81 l-11
25 -4 -30 c-5 -41 -20 -58 -37 -42 -9 9 -10 16 -2 25 8 10 7 16 -4 23 -9 5
-10 9 -2 9 7 0 11 11 9 28 -1 15 2 33 7 40 5 6 7 12 4 12 -4 0 0 18 8 41 8 22
14 43 13 47 -1 8 10 59 19 82 3 8 8 24 10 35 2 11 8 21 13 23 5 2 6 10 3 18
-3 9 4 28 16 44 25 34 26 41 7 34 -11 -4 -13 5 -9 43 2 26 7 55 10 63 9 21 10
28 12 46 1 13 4 14 16 4 8 -7 15 -20 15 -29 1 -9 6 -26 14 -39 14 -26 20 -21
46 33 8 17 21 34 27 38 18 11 16 37 -2 37 -8 0 -15 5 -15 10 0 19 -25 10 -36
-14 -8 -17 -8 -29 -1 -42 10 -18 10 -18 -14 -3 -40 27 -36 60 11 103 22 20 38
41 35 46 -5 9 15 15 38 11 4 0 7 4 7 11 0 6 8 4 19 -6 17 -16 19 -16 25 0 6
15 8 15 27 -2 20 -18 21 -18 34 -1 15 21 25 22 25 1 0 -15 3 -15 26 1 15 9 23
12 20 6 -10 -15 5 -13 28 4 26 20 37 19 29 -2 -6 -17 -5 -17 14 0 11 9 23 14
26 11 4 -4 14 -1 23 7 10 8 20 12 23 10 3 -3 8 6 11 20 5 23 40 38 40 17 0 -6
7 -4 17 3 9 8 26 14 37 14 12 0 20 6 18 13 -2 9 3 10 15 3 17 -9 59 -6 93 6
20 7 127 14 265 18 183 5 289 13 318 24 18 7 36 7 53 1 17 -7 39 -7 66 1 26 7
43 7 47 1 6 -10 107 1 119 13 10 10 23 5 17 -6z m122 5 c-3 -3 -12 -4 -19 -1
-8 3 -5 6 6 6 11 1 17 -2 13 -5z m310 -40 c-3 -3 -12 -4 -19 -1 -8 3 -5 6 6 6
11 1 17 -2 13 -5z m-247 -198 c0 -2 -8 -10 -17 -17 -16 -13 -17 -12 -4 4 13
16 21 21 21 13z m120 -10 c0 -3 -4 -8 -10 -11 -5 -3 -10 -1 -10 4 0 6 5 11 10
11 6 0 10 -2 10 -4z m-113 -21 c0 -8 -10 -23 -21 -32 -20 -17 -20 -17 -7 0 7
9 10 17 6 17 -4 0 -2 7 5 15 15 19 17 19 17 0z m-4255 -36 c3 -9 9 -9 25 0 13
6 24 7 27 2 4 -5 0 -12 -6 -14 -8 -3 -6 -6 5 -6 10 -1 15 -6 12 -11 -4 -6 -12
-7 -18 -4 -9 5 -8 3 0 -6 7 -8 46 -16 92 -19 85 -7 122 -21 53 -21 -22 0 -49
-3 -59 -7 -16 -6 -15 -8 7 -14 23 -6 22 -7 -10 -9 -33 -2 -33 -3 -10 -10 19
-6 12 -8 -32 -9 -60 -1 -91 -9 -83 -20 2 -4 -10 -6 -28 -5 -19 2 -24 1 -12 -3
l20 -6 -20 -9 c-13 -5 -3 -7 30 -3 136 15 285 17 350 6 158 -28 292 -137 327
-264 15 -56 -3 -196 -27 -210 -8 -4 -15 -12 -15 -17 0 -11 -63 -82 -145 -163
-36 -36 -55 -61 -47 -64 6 -3 12 -9 12 -14 0 -6 -8 -5 -20 1 -17 9 -20 8 -20
-9 0 -14 -15 -28 -47 -45 -27 -14 -63 -39 -82 -55 -18 -17 -38 -28 -45 -24 -6
3 -8 3 -4 -2 9 -10 -19 -38 -31 -31 -17 11 -39 -5 -34 -25 5 -19 33 -27 33 -9
0 6 7 10 15 10 8 0 15 -4 15 -10 0 -5 -7 -10 -15 -10 -8 0 -15 -4 -15 -8 0
-14 -110 -65 -340 -158 -142 -58 -348 -109 -469 -118 l-76 -5 70 14 c79 15
207 49 245 63 22 8 21 10 -20 15 -25 3 -61 4 -80 2 -19 -2 -123 -7 -230 -11
-163 -6 -209 -4 -280 10 -113 22 -195 63 -257 129 -44 46 -51 61 -62 119 -12
61 -11 72 8 131 12 36 36 87 53 114 45 68 202 222 275 269 102 65 102 65 69
53 -16 -5 -31 -7 -34 -4 -3 3 -1 5 5 5 6 0 16 13 22 29 7 15 28 43 47 62 19
18 34 41 34 51 0 10 5 18 10 18 6 0 10 7 10 15 0 8 4 15 10 15 8 0 136 102
150 120 3 4 27 15 53 25 26 10 50 22 53 26 13 21 171 75 249 85 28 4 55 10 60
15 6 4 42 9 81 12 39 2 79 9 90 15 25 15 51 15 56 1z m4363 -9 c-4 -7 3 -9 19
-6 14 3 26 1 26 -2 0 -11 -121 -126 -155 -147 -16 -11 -52 -30 -78 -42 -31
-15 -46 -27 -41 -34 4 -8 3 -9 -5 -5 -9 6 -9 11 0 22 6 8 8 14 4 14 -4 0 -2 7
5 15 7 8 17 15 23 15 6 0 2 -7 -9 -15 -22 -17 -12 -20 16 -5 11 6 17 17 14 24
-3 8 0 17 7 22 9 5 10 2 6 -9 -9 -24 9 -21 35 5 13 13 29 21 36 20 8 -2 11 1
8 7 -4 6 5 18 19 27 13 9 23 20 20 24 -5 8 24 38 38 39 4 1 7 4 6 9 -1 4 -6 6
-12 4 -6 -2 -5 4 3 12 14 18 25 22 15 6z m-245 -4 c0 -2 -7 -7 -16 -10 -8 -3
-12 -2 -9 4 6 10 25 14 25 6z m125 -18 c3 -2 -5 -13 -17 -24 -15 -13 -18 -14
-10 -3 10 14 10 18 -3 23 -9 3 -30 -7 -53 -28 -20 -18 -47 -38 -60 -45 -12 -7
-20 -15 -18 -20 6 -10 -101 -59 -140 -63 -24 -3 -31 -1 -27 9 4 9 0 11 -11 7
-9 -3 -14 -10 -11 -14 5 -8 -55 -23 -63 -15 -3 3 2 5 10 5 9 0 21 7 28 15 11
14 10 14 -15 5 -23 -9 -26 -8 -17 2 6 8 34 22 61 32 28 10 54 23 57 28 4 6 -3
5 -15 -1 -11 -7 -21 -9 -21 -6 0 3 -22 -6 -50 -20 -58 -29 -61 -30 -53 -10 6
18 65 45 97 45 12 0 26 4 32 9 5 4 29 15 54 24 25 8 54 18 65 23 19 7 19 7 3
-9 -9 -9 -21 -17 -26 -17 -6 0 -12 -4 -14 -9 -1 -5 -30 -22 -63 -39 -47 -24
-56 -32 -42 -37 11 -5 25 -1 37 10 10 9 23 14 28 11 5 -3 22 -1 38 4 28 10 28
10 -6 5 l-35 -4 28 15 c15 8 27 19 27 24 0 6 7 10 16 10 8 0 12 -5 8 -11 -3
-6 9 -3 27 7 39 20 95 64 81 64 -5 0 -15 -7 -23 -16 -15 -19 -69 -47 -76 -40
-3 2 16 18 43 34 34 22 58 29 85 28 21 -1 41 -5 44 -8z m315 -24 c-8 -8 -23
-20 -34 -25 -13 -6 -10 0 9 15 34 29 43 33 25 10z m50 -42 c0 -5 -7 -17 -16
-28 -8 -10 -14 -14 -11 -9 2 6 7 18 10 28 7 17 17 23 17 9z m-301 -58 c-44
-32 -49 -30 -14 6 15 16 32 27 37 24 5 -3 -5 -17 -23 -30z m-237 -20 c-29 -14
-58 -23 -65 -20 -7 2 -4 5 6 5 9 1 17 5 17 9 0 10 48 30 75 31 11 0 -4 -11
-33 -25z m-432 -9 c-7 -9 -18 -14 -25 -12 -6 3 -19 -1 -30 -9 -28 -21 -41 -17
-19 7 10 11 26 18 35 16 9 -3 23 -1 30 4 21 13 23 11 9 -6z m1776 0 c-3 -9 1
-18 10 -22 11 -4 12 -8 4 -13 -13 -8 -3 -60 12 -60 5 0 6 -5 2 -11 -4 -8 4 -9
27 -5 l34 7 -31 -15 c-37 -16 -52 -36 -30 -36 9 0 16 -4 16 -10 0 -5 -6 -10
-12 -10 -24 0 16 -20 42 -21 24 -1 23 -1 -7 -15 -38 -16 -38 -17 -17 -38 14
-15 13 -16 -9 -16 -19 0 -24 5 -25 28 -1 46 -30 200 -41 221 -15 27 -14 31 10
31 15 0 19 -5 15 -15z m-1956 -14 c0 -5 -7 -11 -14 -14 -10 -4 -13 -1 -9 9 6
15 23 19 23 5z m-60 -60 c-28 -57 -33 -51 -7 10 12 28 23 46 25 40 2 -5 -6
-28 -18 -50z m587 53 c-3 -3 -12 -4 -19 -1 -8 3 -5 6 6 6 11 1 17 -2 13 -5z
m133 -4 c0 -5 -5 -10 -11 -10 -5 0 -7 5 -4 10 3 6 8 10 11 10 2 0 4 -4 4 -10z
m180 -9 c0 -5 -7 -12 -16 -15 -14 -5 -15 -4 -4 9 14 17 20 19 20 6z m70 4 c0
-2 -10 -9 -22 -15 -22 -11 -22 -10 -4 4 21 17 26 19 26 11z m30 1 c0 -2 -8
-10 -17 -17 -16 -13 -17 -12 -4 4 13 16 21 21 21 13z m-301 -30 c-2 -2 -17 -6
-34 -10 -22 -5 -26 -4 -15 4 14 9 59 15 49 6z m199 -25 c11 -7 10 -9 -3 -14
-9 -4 -14 -3 -10 2 3 5 -1 12 -7 14 -7 3 -8 6 -3 6 6 0 16 -3 23 -8z m-78 -25
c0 -2 -7 -7 -16 -10 -8 -3 -12 -2 -9 4 6 10 25 14 25 6z m131 -19 c-10 -9 -11
-8 -5 6 3 10 9 15 12 12 3 -3 0 -11 -7 -18z m-1103 -38 c-6 -16 -12 -28 -14
-26 -5 5 13 57 20 57 3 0 0 -14 -6 -31z m781 15 c10 -9 -35 -3 -49 6 -11 8 -7
9 15 4 17 -4 32 -8 34 -10z m-643 -41 c-7 -29 -12 -40 -14 -27 -3 19 13 74 21
74 2 0 -1 -21 -7 -47z m64 -27 c0 -13 -5 -17 -20 -13 -10 3 -21 0 -24 -7 -3
-6 -3 0 0 13 13 52 43 57 44 7z m840 24 c-35 -24 -54 -31 -30 -11 14 11 30 21
35 21 6 0 3 -5 -5 -10z m-473 -6 c-3 -3 -12 -4 -19 -1 -8 3 -5 6 6 6 11 1 17
-2 13 -5z m110 -10 c-3 -3 -12 -4 -19 -1 -8 3 -5 6 6 6 11 1 17 -2 13 -5z
m-396 -27 c-10 -9 -11 -8 -5 6 3 10 9 15 12 12 3 -3 0 -11 -7 -18z m354 13 c3
-5 1 -10 -4 -10 -6 0 -11 5 -11 10 0 6 2 10 4 10 3 0 8 -4 11 -10z m-714 -86
c-12 -21 -21 -44 -21 -51 0 -6 -4 -15 -10 -18 -5 -3 -7 0 -4 8 3 8 6 27 8 43
1 16 7 28 14 27 6 -2 14 7 17 18 4 11 9 18 12 16 2 -3 -5 -22 -16 -43z m1379
32 c0 -2 -8 -10 -17 -17 -16 -13 -17 -12 -4 4 13 16 21 21 21 13z m905 -2 c14
-6 14 -9 0 -30 -14 -21 -13 -24 3 -33 13 -7 23 -6 30 1 9 9 12 8 12 -5 0 -13
-9 -17 -41 -17 -38 0 -41 2 -34 23 4 12 6 32 6 45 -1 24 0 25 24 16z m-2031
-63 c-2 -2 -10 4 -18 12 -12 11 -13 16 -3 20 11 4 29 -23 21 -32z m1186 -5 c0
-2 -8 -10 -17 -17 -16 -13 -17 -12 -4 4 13 16 21 21 21 13z m-1486 -81 c-4
-30 -4 -30 7 -5 28 61 33 70 35 67 2 -1 -5 -33 -14 -70 -17 -65 -17 -66 -29
-40 -17 42 -25 91 -17 105 11 17 23 -20 18 -57z m213 43 c-3 -8 -6 -5 -6 6 -1
11 2 17 5 13 3 -3 4 -12 1 -19z m1279 -24 c-9 -8 -11 -9 -6 -2 15 18 12 31 -6
24 -14 -6 -15 -4 -4 9 12 15 14 15 23 0 6 -12 4 -21 -7 -31z m857 26 c18 0 19
-2 7 -10 -8 -5 -28 -9 -45 -9 -16 0 -24 3 -17 6 6 2 9 10 5 16 -4 7 0 8 11 4
10 -4 27 -7 39 -7z m-766 -36 c-3 -3 -12 -4 -19 -1 -8 3 -5 6 6 6 11 1 17 -2
13 -5z m748 -13 c3 -5 0 -13 -7 -17 -7 -5 -3 -11 13 -17 l24 -10 -22 -4 c-24
-5 -32 -23 -10 -23 6 -1 -1 -7 -18 -15 -24 -11 -26 -14 -10 -14 11 -1 26 -5
34 -10 8 -5 -2 -8 -27 -6 -48 2 -49 -19 -1 -29 20 -4 29 -11 29 -25 0 -11 8
-25 18 -30 11 -7 12 -10 3 -11 -7 0 -11 -6 -8 -14 3 -8 1 -17 -6 -20 -7 -2 -5
-5 4 -5 9 -1 22 -8 29 -16 7 -8 21 -15 32 -15 12 0 16 -4 12 -12 -4 -6 2 -18
12 -26 13 -10 15 -16 7 -19 -28 -10 -13 -41 25 -51 l37 -9 -51 2 c-57 2 -75
10 -68 29 6 15 -40 31 -57 21 -5 -4 -8 -1 -7 7 2 7 12 18 23 25 11 7 16 13 10
13 -5 0 -3 5 5 10 12 8 11 10 -5 8 -40 -3 -55 2 -55 18 0 9 8 23 18 31 9 8 12
12 6 9 -13 -6 -44 35 -44 58 0 8 -8 21 -18 28 -19 14 -20 17 -8 66 5 20 14 32
24 33 11 0 12 3 5 6 -9 3 -10 10 -3 24 11 20 45 26 55 10z m-1683 -30 c28 -25
30 -31 19 -45 -18 -22 -53 -20 -79 4 -25 24 -25 25 -12 51 15 26 34 24 72 -10z
m-1458 -17 c-19 -19 -34 -44 -34 -54 0 -10 -9 -28 -20 -41 -16 -20 -19 -21
-20 -6 0 21 41 87 72 116 36 35 38 24 2 -15z m814 -74 l0 -25 -8 25 c-4 14 -8
39 -8 55 l0 30 8 -30 c4 -16 8 -41 8 -55z m59 38 c-3 -8 -6 -5 -6 6 -1 11 2
17 5 13 3 -3 4 -12 1 -19z m1553 12 c0 -5 -7 -10 -15 -10 -8 0 -15 5 -15 10 0
6 7 10 15 10 8 0 15 -4 15 -10z m165 -20 c-3 -5 -12 -10 -18 -10 -7 0 -6 4 3
10 19 12 23 12 15 0z m-1804 -71 c-5 -13 -10 -19 -10 -12 -1 15 10 45 15 40 3
-2 0 -15 -5 -28z m1108 8 c-2 -2 -17 -7 -34 -10 l-30 -6 28 13 c15 6 26 15 24
18 -2 3 1 2 6 -3 6 -5 9 -10 6 -12z m470 -9 c-2 -2 -17 -14 -34 -28 l-30 -25
24 28 c14 15 29 27 34 27 6 0 8 -1 6 -2z m41 -2 c0 -2 -7 -7 -16 -10 -8 -3
-12 -2 -9 4 6 10 25 14 25 6z m-2473 -38 c-3 -7 -5 -2 -5 12 0 14 2 19 5 13 2
-7 2 -19 0 -25z m1099 1 c3 -6 1 -16 -6 -22 -10 -9 -11 -9 -5 2 4 8 2 17 -6
22 -9 6 -10 9 -2 9 6 0 15 -5 19 -11z m-259 -31 c-3 -8 -6 -5 -6 6 -1 11 2 17
5 13 3 -3 4 -12 1 -19z m270 -12 c-15 -14 -27 -22 -27 -19 0 11 43 53 48 48 3
-3 -7 -16 -21 -29z m763 24 c-8 -5 -19 -10 -25 -10 -5 0 -3 5 5 10 8 5 20 10
25 10 6 0 3 -5 -5 -10z m153 3 c-7 -2 -19 -2 -25 0 -7 3 -2 5 12 5 14 0 19 -2
13 -5z m466 -16 c-31 -22 -59 -35 -59 -27 0 6 10 15 23 20 21 8 45 13 36 7z
m-599 -15 c0 -4 -16 -14 -35 -21 -32 -11 -40 -21 -36 -43 1 -10 -16 -10 -47
-2 -22 6 -22 7 10 30 17 13 41 24 52 24 12 0 28 5 36 10 18 12 20 12 20 2z
m287 -8 c-3 -3 -12 -4 -19 -1 -8 3 -5 6 6 6 11 1 17 -2 13 -5z m-85 -12 c-13
-4 -24 -11 -25 -17 -1 -5 -8 -9 -14 -7 -7 2 -13 -2 -13 -8 0 -5 -9 -10 -19
-10 -11 0 -23 -5 -27 -11 -4 -8 3 -9 25 -4 19 4 31 3 31 -4 0 -5 -14 -11 -32
-13 -21 -2 -32 -9 -34 -21 -4 -27 -8 -29 -61 -33 -26 -2 -64 -6 -83 -9 l-35
-5 33 14 c39 18 41 27 5 22 -33 -4 -84 -24 -65 -25 7 -1 10 -5 7 -11 -12 -19
-21 -10 -23 23 -1 18 1 27 6 20 6 -10 14 -9 36 2 16 8 42 15 60 16 17 0 40 4
51 9 13 5 -2 7 -40 4 -39 -2 -54 0 -45 6 8 6 11 10 7 10 -4 0 1 9 11 20 14 15
39 23 83 28 85 10 191 13 161 4z m-1285 -54 c-2 -13 -4 -5 -4 17 -1 22 1 32 4
23 2 -10 2 -28 0 -40z m937 37 c-4 -8 -11 -15 -16 -15 -6 0 -5 6 2 15 7 8 14
15 16 15 2 0 1 -7 -2 -15z m953 9 c-3 -3 -12 -4 -19 -1 -8 3 -5 6 6 6 11 1 17
-2 13 -5z m-47 -14 c-20 -13 -43 -13 -35 0 3 6 16 10 28 10 18 0 19 -2 7 -10z
m-1933 -32 c-3 -8 -6 -5 -6 6 -1 11 2 17 5 13 3 -3 4 -12 1 -19z m2102 6 c9
-8 -75 -2 -94 6 -12 5 1 6 35 3 30 -3 57 -7 59 -9z m-74 -14 c4 -6 -5 -10 -19
-10 -14 0 -26 5 -26 10 0 6 9 10 19 10 11 0 23 -4 26 -10z m-1501 -15 c-4 -8
-10 -12 -15 -9 -14 8 -10 24 6 24 9 0 12 -6 9 -15z m456 11 c0 -2 -8 -10 -17
-17 -16 -13 -17 -12 -4 4 13 16 21 21 21 13z m103 -3 c-7 -2 -19 -2 -25 0 -7
3 -2 5 12 5 14 0 19 -2 13 -5z m447 -2 c0 -14 -25 -31 -59 -37 -44 -9 -53 -28
-10 -20 l34 5 -32 -11 c-18 -6 -33 -15 -33 -20 0 -5 -13 -7 -30 -3 -19 4 -30
3 -30 -4 0 -13 -76 -14 -105 -1 -15 6 -16 9 -4 9 9 1 29 7 45 15 16 8 63 20
104 27 59 10 70 15 50 20 l-25 7 25 1 c14 1 32 6 40 11 19 12 30 13 30 1z
m165 -1 c-3 -5 -12 -10 -18 -10 -7 0 -6 4 3 10 19 12 23 12 15 0z m-1638 -37
c-3 -10 -5 -4 -5 12 0 17 2 24 5 18 2 -7 2 -21 0 -30z m1840 21 c-3 -3 -12 -4
-19 -1 -8 3 -5 6 6 6 11 1 17 -2 13 -5z m223 -4 l-35 -7 30 -3 c17 -1 41 -6
55 -11 19 -6 14 -7 -20 -4 -33 4 -39 2 -25 -4 19 -9 19 -10 -2 -10 -13 -1 -23
4 -23 9 0 6 -12 10 -26 10 -14 0 -23 -4 -19 -10 7 -11 -8 -11 -45 0 -23 7 -22
8 15 15 37 8 38 9 15 16 -16 4 1 7 45 7 56 -1 63 -2 35 -8z m-1452 -41 c12 -5
22 -11 22 -14 0 -2 -12 0 -27 6 -15 6 -43 8 -61 4 -42 -8 -68 7 -27 16 30 6
50 4 93 -12z m357 11 c-3 -5 -12 -10 -18 -10 -7 0 -6 4 3 10 19 12 23 12 15 0z
m502 4 c-3 -3 -12 -4 -19 -1 -8 3 -5 6 6 6 11 1 17 -2 13 -5z m246 -11 c-7 -2
-19 -2 -25 0 -7 3 -2 5 12 5 14 0 19 -2 13 -5z m477 -2 c-8 -5 -33 -12 -55
-15 l-40 -6 40 14 c48 17 79 20 55 7z m-1922 -26 c-12 -14 -23 -25 -25 -25 -2
0 4 11 13 25 9 14 20 25 25 25 5 0 -1 -11 -13 -25z m945 18 c-7 -2 -19 -2 -25
0 -7 3 -2 5 12 5 14 0 19 -2 13 -5z m420 0 c-7 -2 -19 -2 -25 0 -7 3 -2 5 12
5 14 0 19 -2 13 -5z m-509 -18 c-5 -12 4 -15 42 -16 30 -1 38 -4 22 -6 -18 -3
-28 -10 -28 -21 0 -12 3 -13 8 -5 4 7 21 12 37 11 17 0 57 2 90 5 40 4 50 3
30 -2 -24 -7 -16 -9 45 -11 l75 -3 -71 -8 c-39 -4 -90 -13 -115 -20 -69 -18
-135 -22 -158 -10 -12 7 -21 8 -21 2 0 -5 -9 -13 -20 -16 -11 -4 -17 -11 -14
-17 4 -6 -1 -8 -15 -3 -13 4 -21 2 -21 -5 0 -6 10 -10 23 -9 12 2 28 0 34 -4
7 -4 22 -3 34 4 12 6 65 12 118 14 53 1 87 1 76 -2 -11 -2 -31 -6 -44 -9 l-24
-5 26 -14 c17 -9 54 -13 99 -12 50 1 73 -2 76 -11 3 -9 -7 -11 -40 -7 -32 3
-37 3 -18 -4 l25 -9 -27 -1 c-16 -1 -28 4 -28 10 0 11 -10 10 -70 -6 -17 -5
-21 -4 -12 3 10 6 1 11 -30 15 -24 3 -52 9 -63 13 -14 6 -16 4 -10 -6 6 -10 0
-12 -29 -7 -22 3 -34 2 -31 -4 4 -5 -4 -9 -17 -9 -35 1 -218 28 -258 38 -32 8
-33 9 -12 16 12 4 47 2 78 -4 31 -7 58 -9 61 -7 3 3 -16 9 -41 12 -57 9 -71
26 -19 24 21 0 54 4 73 9 l35 10 -40 2 -40 2 40 9 c22 4 60 8 85 9 31 0 41 3
31 9 -12 8 -9 11 14 17 19 5 30 3 33 -4 2 -7 11 -12 20 -11 11 0 12 2 4 6 -6
2 -10 8 -7 13 3 4 -12 11 -32 15 -24 4 -39 3 -41 -4 -2 -6 -8 -9 -13 -5 -5 3
-23 2 -41 -1 -23 -6 -27 -9 -17 -17 11 -8 10 -8 -4 -4 -10 3 -24 6 -30 7 -7 0
8 10 33 22 25 11 55 20 68 19 12 0 20 3 17 8 -4 6 7 10 24 10 23 0 29 -4 25
-15z m936 5 c11 -7 8 -9 -15 -9 -16 1 -41 5 -55 9 -22 7 -20 8 15 9 22 0 47
-4 55 -9z m511 -42 c-25 -10 -38 -9 -21 2 13 9 13 12 -2 21 -10 5 -18 15 -18
20 0 6 13 0 28 -13 24 -19 26 -24 13 -30z m-5276 34 c-6 -5 -26 -18 -45 -30
-34 -20 -36 -20 -36 -3 0 11 6 17 12 14 7 -2 25 2 41 11 32 17 41 20 28 8z
m2545 -31 c-5 -11 -15 -23 -21 -27 -6 -3 -3 5 6 20 20 30 30 35 15 7z m1854
11 c2 -4 -28 -8 -68 -9 -46 -1 -64 1 -51 6 24 10 113 13 119 3z m-1199 -28
c26 -22 26 -24 5 -12 -14 7 -31 13 -39 13 -8 0 -16 6 -19 13 -6 20 21 13 53
-14z m112 -11 c-7 -7 -46 11 -51 23 -5 12 0 11 24 -2 16 -10 28 -19 27 -21z
m846 30 c-7 -2 -19 -2 -25 0 -7 3 -2 5 12 5 14 0 19 -2 13 -5z m803 -8 c-19
-14 -76 -22 -63 -9 5 5 54 19 77 23 3 0 -4 -6 -14 -14z m-726 -5 c-12 -8 -12
-10 -1 -10 8 0 12 -2 9 -5 -3 -4 -19 -3 -34 1 l-29 8 25 7 c37 10 47 10 30 -1z
m591 -7 c13 -15 11 -16 -21 -9 -47 9 -63 26 -23 26 17 0 37 -8 44 -17z m-2016
-39 c-8 -16 -15 -23 -15 -16 0 13 22 53 27 48 2 -2 -3 -16 -12 -32z m1720 26
c30 -6 21 -7 -35 -3 -41 3 -77 7 -79 9 -8 7 74 3 114 -6z m-1385 -4 c0 -2 -9
-6 -20 -9 -11 -3 -18 -1 -14 4 5 9 34 13 34 5z m164 -11 c20 -8 36 -18 36 -21
0 -3 -6 -2 -12 2 -10 5 -10 4 -1 -6 6 -7 29 -21 50 -31 34 -17 35 -18 8 -12
-49 10 -136 61 -108 64 4 0 -1 4 -12 9 -11 5 -15 9 -9 9 6 1 28 -6 48 -14z
m1649 8 c-7 -2 -21 -2 -30 0 -10 3 -4 5 12 5 17 0 24 -2 18 -5z m367 -3 c12
-8 11 -10 -7 -10 -13 0 -23 5 -23 10 0 13 11 13 30 0z m-2720 -25 c0 -8 -4
-16 -9 -19 -5 -3 -8 5 -7 18 1 25 16 26 16 1z m629 9 c5 4 13 1 17 -6 4 -7 4
-10 -1 -6 -4 4 -14 3 -22 -4 -15 -12 -26 -6 -29 18 -2 12 1 13 11 4 8 -7 19
-9 24 -6z m-986 -9 c-3 -9 -8 -14 -10 -11 -3 3 -2 9 2 15 9 16 15 13 8 -4z
m847 11 c0 -3 -4 -8 -10 -11 -5 -3 -10 -1 -10 4 0 6 5 11 10 11 6 0 10 -2 10
-4z m1260 -11 c10 -12 10 -15 -4 -15 -9 0 -16 7 -16 15 0 8 2 15 4 15 2 0 9
-7 16 -15z m307 9 c-7 -8 -138 -6 -146 1 -2 3 31 5 74 5 43 0 75 -3 72 -6z
m350 0 c-3 -3 -12 -4 -19 -1 -8 3 -5 6 6 6 11 1 17 -2 13 -5z m-1480 -10 c-3
-3 -12 -4 -19 -1 -8 3 -5 6 6 6 11 1 17 -2 13 -5z m658 -4 c-3 -5 -21 -10 -38
-9 -27 0 -29 2 -12 9 28 12 57 12 50 0z m-845 -40 c30 -12 71 -24 90 -26 19
-1 46 -6 59 -10 17 -5 22 -4 17 4 -9 15 23 16 61 1 15 -6 58 -10 95 -10 37 1
70 -4 73 -9 6 -10 -111 -7 -172 5 l-28 5 28 -13 c15 -7 25 -16 22 -18 -3 -3
10 -6 28 -6 17 0 61 -3 97 -7 36 -3 57 -3 48 1 -9 5 36 9 100 10 l117 2 -25
-19 c-22 -17 -49 -24 -87 -23 -7 1 -13 -3 -13 -8 0 -5 -5 -9 -11 -9 -5 0 -7 5
-4 10 3 6 1 10 -4 10 -17 0 -13 -18 7 -29 10 -6 12 -11 4 -11 -7 0 -10 -5 -6
-12 4 -7 3 -8 -4 -4 -7 4 -12 14 -12 23 0 11 -6 14 -24 9 -13 -3 -35 -2 -48 3
-14 6 -17 10 -8 11 8 1 -28 8 -80 15 -52 8 -137 28 -189 45 -52 17 -96 29 -98
26 -3 -2 5 -7 18 -11 17 -6 19 -9 8 -16 -18 -11 -42 -12 -35 0 6 10 -42 33
-54 26 -4 -3 -7 3 -6 12 2 9 -9 28 -23 41 -14 14 -19 20 -11 14 8 -6 40 -20
70 -32z m1097 34 c-3 -3 -12 -4 -19 -1 -8 3 -5 6 6 6 11 1 17 -2 13 -5z m553
-4 c-8 -5 -26 -9 -40 -9 -23 1 -23 2 5 9 43 11 52 11 35 0z m-1850 -26 c0 -8
-41 3 -52 14 -10 10 -6 10 20 1 17 -6 32 -13 32 -15z m667 20 c-3 -3 -12 -4
-19 -1 -8 3 -5 6 6 6 11 1 17 -2 13 -5z m343 -12 l45 -9 -53 -2 c-31 0 -51 3
-47 8 3 6 -12 12 -32 14 -34 4 -34 4 2 1 22 -2 60 -7 85 -12z m1110 2 c0 -2
-12 -4 -27 -4 -21 0 -24 3 -14 9 13 8 41 5 41 -5z m-2480 -9 c-7 -8 -17 -15
-23 -15 -6 0 -2 7 9 15 25 19 30 19 14 0z m2127 9 c-3 -3 -12 -4 -19 -1 -8 3
-5 6 6 6 11 1 17 -2 13 -5z m-2650 -19 c0 -8 -4 -12 -9 -9 -5 3 -6 10 -3 15 9
13 12 11 12 -6z m2140 9 c-3 -3 -12 -4 -19 -1 -8 3 -5 6 6 6 11 1 17 -2 13 -5z
m166 -1 c-7 -2 -19 -2 -25 0 -7 3 -2 5 12 5 14 0 19 -2 13 -5z m-2173 -23
c-12 -7 -12 -12 -2 -22 8 -8 12 -9 12 -1 0 7 8 11 19 10 24 -1 18 -23 -20 -67
-17 -19 -26 -26 -20 -14 5 11 17 26 25 34 9 7 16 19 16 28 0 12 -7 10 -27 -9
-27 -24 -53 -32 -53 -16 0 4 0 11 0 16 0 13 52 62 59 56 3 -4 -1 -10 -9 -15z
m1085 10 c3 -6 -1 -7 -9 -4 -18 7 -21 14 -7 14 6 0 13 -4 16 -10z m798 3 c-7
-2 -19 -2 -25 0 -7 3 -2 5 12 5 14 0 19 -2 13 -5z m200 0 c-13 -2 -33 -2 -45
0 -13 2 -3 4 22 4 25 0 35 -2 23 -4z m847 -8 l55 -13 -41 -1 c-59 -1 -109 10
-92 20 16 11 12 11 78 -6z m-960 -5 c11 -7 5 -8 -20 -4 -43 8 -51 14 -19 14
13 0 31 -5 39 -10z m-2043 -14 c0 -8 -6 -12 -15 -9 -11 5 -11 7 0 14 7 5 13 9
14 9 0 0 1 -6 1 -14z m433 11 c0 -2 -12 -14 -27 -28 -14 -13 -23 -18 -19 -11
4 6 3 12 -1 12 -5 0 -15 -6 -23 -12 -12 -11 -12 -10 0 5 7 10 19 16 26 13 7
-3 18 2 24 10 12 13 20 18 20 11z m595 -37 c3 -6 -1 -7 -9 -4 -18 7 -21 14 -7
14 6 0 13 -4 16 -10z m545 0 c-14 -4 -32 -8 -40 -9 -13 -1 -13 0 0 9 8 5 26 9
40 9 l25 -1 -25 -8z m133 3 c-7 -2 -19 -2 -25 0 -7 3 -2 5 12 5 14 0 19 -2 13
-5z m190 0 c-7 -2 -21 -2 -30 0 -10 3 -4 5 12 5 17 0 24 -2 18 -5z m-2596 -19
c-3 -3 -12 -4 -19 -1 -8 3 -5 6 6 6 11 1 17 -2 13 -5z m1043 -4 c0 -5 -5 -10
-11 -10 -5 0 -7 5 -4 10 3 6 8 10 11 10 2 0 4 -4 4 -10z m779 -11 c18 -11 30
-23 27 -27 -4 -3 -10 -2 -14 4 -4 6 -20 18 -37 27 -16 9 -25 16 -20 17 6 0 25
-9 44 -21z m654 14 c-7 -2 -19 -2 -25 0 -7 3 -2 5 12 5 14 0 19 -2 13 -5z
m187 -3 c-8 -5 -26 -9 -40 -9 -23 1 -23 2 5 9 43 11 52 11 35 0z m47 4 c-3 -3
-12 -4 -19 -1 -8 3 -5 6 6 6 11 1 17 -2 13 -5z m-955 -46 c10 -10 24 -18 32
-18 8 0 17 -4 20 -8 3 -5 -8 -9 -25 -9 -16 0 -25 3 -19 7 7 4 -2 10 -19 13
-20 4 -31 13 -31 23 0 10 -6 14 -14 11 -8 -3 -17 0 -20 8 -7 19 50 -1 76 -27z
m18 32 c8 -5 11 -10 5 -10 -5 0 -17 5 -25 10 -8 5 -10 10 -5 10 6 0 17 -5 25
-10z m1916 -1 c3 -5 -11 -9 -31 -9 -20 0 -34 4 -31 9 3 5 17 9 31 9 14 0 28
-4 31 -9z m-1211 -19 c22 -4 30 -8 18 -9 -13 0 -23 -5 -23 -9 0 -10 -105 -3
-134 8 -18 8 -17 9 9 10 24 0 27 2 15 11 -15 11 27 7 115 -11z m418 13 c-7 -2
-19 -2 -25 0 -7 3 -2 5 12 5 14 0 19 -2 13 -5z m-2083 -17 c0 -3 -4 -8 -10
-11 -5 -3 -10 -1 -10 4 0 6 5 11 10 11 6 0 10 -2 10 -4z m-3160 -16 c0 -5 -4
-10 -9 -10 -6 0 -13 5 -16 10 -3 6 1 10 9 10 9 0 16 -4 16 -10z m4977 -5 c21
-4 46 -9 57 -12 10 -3 16 -1 13 5 -4 5 18 0 48 -12 59 -23 76 -41 23 -24 -58
17 -190 39 -208 33 -9 -3 -23 1 -30 10 -13 16 -1 16 97 0z m-304 -12 c-7 -2
-21 -2 -30 0 -10 3 -4 5 12 5 17 0 24 -2 18 -5z m-1433 -17 c0 -2 -8 -10 -17
-17 -16 -13 -17 -12 -4 4 13 16 21 21 21 13z m1203 -3 c-7 -2 -21 -2 -30 0
-10 3 -4 5 12 5 17 0 24 -2 18 -5z m561 -7 c27 -7 44 -16 38 -20 -6 -4 -31 -1
-54 6 -24 7 -48 12 -55 13 -6 0 -15 4 -19 8 -11 11 35 8 90 -7z m1074 7 c-10
-2 -28 -2 -40 0 -13 2 -5 4 17 4 22 1 32 -1 23 -4z m-1431 -9 c-3 -3 -12 -4
-19 -1 -8 3 -5 6 6 6 11 1 17 -2 13 -5z m-2384 -11 c-7 -2 -19 -2 -25 0 -7 3
-2 5 12 5 14 0 19 -2 13 -5z m2057 -3 c8 -5 11 -10 5 -10 -5 0 -17 5 -25 10
-8 5 -10 10 -5 10 6 0 17 -5 25 -10z m217 4 c-3 -3 -12 -4 -19 -1 -8 3 -5 6 6
6 11 1 17 -2 13 -5z m353 -10 c0 -2 -9 -4 -21 -4 -11 0 -18 4 -14 10 5 8 35 3
35 -6z m345 1 c22 -11 24 -13 6 -9 -13 3 -30 7 -37 8 -7 1 -17 5 -20 9 -12 12
20 7 51 -8z m-472 -2 c-7 -2 -21 -2 -30 0 -10 3 -4 5 12 5 17 0 24 -2 18 -5z
m-109 -18 c-7 -17 -7 -17 -29 -9 -13 5 -14 8 -3 15 21 14 38 10 32 -6z m1460
-5 c7 -7 0 -10 -21 -10 -38 0 -63 9 -63 22 0 13 69 3 84 -12z m-6481 3 c-13
-2 -35 -2 -50 0 -16 2 -5 4 22 4 28 0 40 -2 28 -4z m5402 -22 c33 -7 27 -8
-40 -8 -44 0 -64 2 -45 5 34 5 34 5 10 13 -22 8 -21 8 5 3 17 -3 48 -9 70 -13z
m-548 3 c-3 -3 -12 -4 -19 -1 -8 3 -5 6 6 6 11 1 17 -2 13 -5z m256 -1 c-7 -2
-21 -2 -30 0 -10 3 -4 5 12 5 17 0 24 -2 18 -5z m160 0 c-7 -2 -19 -2 -25 0
-7 3 -2 5 12 5 14 0 19 -2 13 -5z m-21 -21 c4 -4 -8 -6 -27 -4 -19 2 -38 9
-42 15 -7 12 56 2 69 -11z m-1515 2 c-3 -3 -12 -4 -19 -1 -8 3 -5 6 6 6 11 1
17 -2 13 -5z m-1119 -11 c-10 -2 -28 -2 -40 0 -13 2 -5 4 17 4 22 1 32 -1 23
-4z m2499 1 c-3 -3 -12 -4 -19 -1 -8 3 -5 6 6 6 11 1 17 -2 13 -5z m563 -64
c8 -5 11 -10 5 -10 -5 0 -17 5 -25 10 -8 5 -10 10 -5 10 6 0 17 -5 25 -10z
m-400 -40 c18 -12 2 -12 -25 0 -13 6 -15 9 -5 9 8 0 22 -4 30 -9z m345 0 l20
-9 -20 0 c-11 0 -27 4 -35 9 -13 9 -13 10 0 9 8 0 24 -4 35 -9z m-2912 -17
c-13 -2 -33 -2 -45 0 -13 2 -3 4 22 4 25 0 35 -2 23 -4z m54 1 c-3 -3 -12 -4
-19 -1 -8 3 -5 6 6 6 11 1 17 -2 13 -5z m2948 -4 c-27 -12 -43 -12 -25 0 8 5
22 9 30 9 10 0 8 -3 -5 -9z m-3092 -7 c-7 -2 -19 -2 -25 0 -7 3 -2 5 12 5 14
0 19 -2 13 -5z m-60 -10 c-7 -2 -19 -2 -25 0 -7 3 -2 5 12 5 14 0 19 -2 13 -5z
m2672 -3 c3 -6 -1 -7 -9 -4 -18 7 -21 14 -7 14 6 0 13 -4 16 -10z m702 4 c-3
-3 -12 -4 -19 -1 -8 3 -5 6 6 6 11 1 17 -2 13 -5z m-3430 -10 c-3 -3 -12 -4
-19 -1 -8 3 -5 6 6 6 11 1 17 -2 13 -5z m2953 -4 c12 -8 10 -10 -10 -10 -14 0
-32 5 -40 10 -12 8 -10 10 10 10 14 0 32 -5 40 -10z m-2993 -6 c-3 -3 -12 -4
-19 -1 -8 3 -5 6 6 6 11 1 17 -2 13 -5z m238 -4 c-11 -5 -29 -9 -40 -9 l-20 0
20 9 c11 5 29 9 40 9 l20 0 -20 -9z m343 -15 c-3 -3 -9 2 -12 12 -6 14 -5 15
5 6 7 -7 10 -15 7 -18z m2025 -17 c48 -17 87 -35 87 -40 0 -6 7 -8 15 -4 8 3
14 0 12 -6 -1 -6 4 -13 12 -16 9 -3 11 0 6 8 -6 9 -3 9 14 1 25 -14 28 -23 4
-14 -11 4 -14 3 -9 -5 4 -7 -28 5 -71 26 -122 61 -154 73 -177 67 -11 -2 -15
-2 -7 1 11 5 11 8 0 16 -16 11 -16 11 114 -34z m137 7 c0 -10 -16 -4 -40 16
l-25 20 33 -16 c17 -8 32 -18 32 -20z m-2573 9 c-3 -3 -12 -4 -19 -1 -8 3 -5
6 6 6 11 1 17 -2 13 -5z m-287 -14 c-8 -5 -19 -10 -25 -10 -5 0 -3 5 5 10 8 5
20 10 25 10 6 0 3 -5 -5 -10z m249 5 c-3 -2 -65 -31 -139 -65 -74 -33 -143
-65 -153 -71 -11 -6 -21 -8 -25 -5 -5 6 47 31 223 109 74 33 105 44 94 32z
m2337 -15 c-14 -5 -7 -11 30 -25 27 -10 60 -27 74 -38 14 -11 21 -18 15 -15
-5 2 -27 12 -47 21 -21 9 -55 24 -75 33 -21 9 -32 18 -25 21 6 3 10 8 7 13 -3
4 5 6 17 2 20 -5 20 -6 4 -12z m-2636 -10 c-8 -5 -19 -10 -25 -10 -5 0 -3 5 5
10 8 5 20 10 25 10 6 0 3 -5 -5 -10z m2739 -16 c19 -8 32 -17 29 -19 -3 -3
-29 6 -59 20 -54 26 -33 25 30 -1z m226 16 c3 -6 -1 -7 -9 -4 -18 7 -21 14 -7
14 6 0 13 -4 16 -10z m-800 -58 c-3 -3 -11 0 -18 7 -9 10 -8 11 6 5 10 -3 15
-9 12 -12z m-2290 -2 c-3 -5 -16 -15 -28 -21 -19 -9 -19 -8 3 10 28 23 34 26
25 11z m550 0 c-3 -5 -10 -10 -15 -10 -5 0 -21 -5 -37 -11 -34 -13 -128 -20
-116 -8 5 5 44 15 88 23 44 8 81 15 83 15 2 1 0 -3 -3 -9z m1795 -26 c0 -2 -9
0 -20 6 -11 6 -20 13 -20 16 0 2 9 0 20 -6 11 -6 20 -13 20 -16z m460 6 c18
-12 2 -12 -25 0 -13 6 -15 9 -5 9 8 0 22 -4 30 -9z m-2860 -14 c0 -2 -18 -15
-40 -30 -22 -14 -40 -24 -40 -22 0 5 71 56 77 56 2 0 3 -2 3 -4z m1875 -109
c31 -31 27 -29 -20 10 -33 28 -69 61 -80 74 -25 29 46 -30 100 -84z m-1305 89
c0 -3 -4 -8 -10 -11 -5 -3 -10 -1 -10 4 0 6 5 11 10 11 6 0 10 -2 10 -4z m-41
-9 c-16 -13 -79 -48 -79 -44 0 7 63 47 74 47 5 0 7 -1 5 -3z m2166 -119 c6 -6
-10 1 -35 16 -25 15 -66 39 -92 54 -27 15 -48 30 -48 34 0 8 159 -87 175 -104z
m-2346 88 c-10 -9 -109 -56 -109 -51 0 6 91 54 104 55 5 0 7 -2 5 -4z m91 -20
c0 -2 -8 -10 -17 -17 -16 -13 -17 -12 -4 4 13 16 21 21 21 13z m737 -28 c-3
-8 -6 -5 -6 6 -1 11 2 17 5 13 3 -3 4 -12 1 -19z m-1137 8 c0 -2 -7 -7 -16
-10 -8 -3 -12 -2 -9 4 6 10 25 14 25 6z m2280 -42 c0 -2 -13 2 -30 11 -16 9
-30 18 -30 21 0 2 14 -2 30 -11 17 -9 30 -18 30 -21z m-1970 -14 c-19 -16 -39
-30 -44 -30 -5 0 8 13 30 30 50 38 59 38 14 0z m861 -7 c13 -41 39 -85 39 -66
0 7 -4 15 -10 18 -5 3 -9 16 -9 28 1 20 2 21 6 2 3 -11 14 -31 24 -44 11 -13
19 -33 20 -45 1 -19 2 -19 8 3 l7 24 17 -27 c10 -14 15 -31 12 -35 -8 -14 -44
-1 -59 20 -7 10 -16 16 -19 13 -6 -6 -38 20 -37 31 1 20 -1 25 -9 21 -9 -6
-45 73 -37 81 2 2 7 -5 11 -16 3 -12 11 -21 18 -21 8 0 8 3 -1 12 -14 14 -16
38 -3 38 5 0 15 -17 22 -37z m3319 7 c13 -9 13 -10 0 -10 -8 0 -22 5 -30 10
-13 9 -13 10 0 10 8 0 22 -5 30 -10z m-2560 -35 c13 -14 21 -25 18 -25 -2 0
-15 11 -28 25 -13 14 -21 25 -18 25 2 0 15 -11 28 -25z m620 -124 c157 -113
257 -192 335 -265 28 -26 -4 -3 -70 52 -112 93 -363 278 -447 330 -21 13 -38
26 -38 29 0 8 70 -38 220 -146z m-6175 -58 c24 -306 68 -495 191 -832 25 -68
24 -81 -7 -81 -24 0 -63 82 -113 240 -65 205 -97 420 -95 633 0 73 0 154 -1
182 0 27 2 46 5 43 4 -3 13 -86 20 -185z m6390 152 l20 -16 -20 10 c-11 5 -29
17 -40 26 l-20 16 20 -10 c11 -5 29 -17 40 -26z m-556 -108 c46 -45 101 -104
123 -132 22 -27 5 -12 -38 34 -44 46 -115 117 -159 159 -44 41 -64 63 -45 48
19 -16 73 -65 119 -109z m-1989 119 c0 -2 -8 -10 -17 -17 -16 -13 -17 -12 -4
4 13 16 21 21 21 13z m250 0 c0 -2 -8 -10 -17 -17 -16 -13 -17 -12 -4 4 13 16
21 21 21 13z m-300 -40 c0 -2 -8 -10 -17 -17 -16 -13 -17 -12 -4 4 13 16 21
21 21 13z m1830 -21 c13 -14 21 -25 18 -25 -2 0 -15 11 -28 25 -13 14 -21 25
-18 25 2 0 15 -11 28 -25z m900 -31 c0 -2 -9 0 -20 6 -11 6 -20 13 -20 16 0 2
9 0 20 -6 11 -6 20 -13 20 -16z m-2770 13 c0 -1 -26 -27 -57 -57 l-58 -55 55
58 c50 53 60 62 60 54z m1181 -34 c-9 -16 -10 -14 -11 12 0 21 3 26 11 18 8
-8 8 -16 0 -30z m53 1 c6 -15 4 -15 -11 -3 -10 7 -20 15 -22 16 -2 2 3 3 11 3
9 0 19 -7 22 -16z m1721 -99 c96 -65 138 -98 105 -80 -38 21 -260 177 -266
188 -5 6 8 0 27 -14 18 -14 79 -57 134 -94z m-2875 102 c0 -2 -10 -12 -22 -23
l-23 -19 19 23 c18 21 26 27 26 19z m1896 -92 c23 -42 5 -21 -40 45 -31 44
-32 48 -8 20 17 -19 38 -48 48 -65z m2071 59 c-3 -3 -12 -4 -19 -1 -8 3 -5 6
6 6 11 1 17 -2 13 -5z m293 -69 c20 -24 6 -28 -15 -5 -10 11 -13 20 -8 20 6 0
16 -7 23 -15z m-3198 -36 c10 -9 18 -24 18 -33 0 -9 5 -16 10 -16 6 0 10 -9
10 -21 0 -11 5 -17 10 -14 6 3 10 1 10 -5 0 -7 7 -10 15 -6 9 3 15 0 15 -8 0
-15 38 -43 83 -63 36 -16 35 -38 -3 -39 -20 -1 -31 5 -35 17 -4 11 -14 16 -31
14 -19 -2 -29 4 -36 21 -9 18 -14 21 -24 13 -10 -8 -21 -4 -44 19 -16 17 -30
37 -30 46 0 8 -5 18 -11 22 -6 3 -9 15 -6 25 3 11 1 19 -4 19 -6 0 -2 11 8 24
10 14 20 19 22 13 2 -7 12 -19 23 -28z m-1152 17 c0 -2 -8 -10 -17 -17 -16
-13 -17 -12 -4 4 13 16 21 21 21 13z m2271 -93 c13 -16 12 -17 -3 -4 -10 7
-18 15 -18 17 0 8 8 3 21 -13z m1799 -28 c23 -9 28 -14 15 -14 -11 0 -33 6
-50 14 -39 17 -11 18 35 0z m70 -25 c8 -5 11 -10 5 -10 -5 0 -17 5 -25 10 -8
5 -10 10 -5 10 6 0 17 -5 25 -10z m-28 -14 c10 -7 15 -16 12 -19 -3 -3 3 -12
15 -19 12 -7 21 -18 21 -25 0 -16 -16 -17 -26 -2 -5 8 -8 8 -14 0 -5 -9 -11
-7 -21 5 -9 12 -10 15 -1 10 6 -4 12 -3 12 1 0 5 -15 14 -32 21 -32 12 -32 13
-14 27 24 18 26 18 48 1z m-235 -52 c-3 -3 -12 -4 -19 -1 -8 3 -5 6 6 6 11 1
17 -2 13 -5z m-987 -39 c19 -19 32 -35 29 -35 -3 0 -20 16 -39 35 -19 19 -32
35 -29 35 3 0 20 -16 39 -35z m1159 -19 c45 -26 67 -47 109 -111 30 -44 43
-70 29 -57 -13 12 -30 35 -38 50 -22 43 -89 101 -156 133 -35 17 -63 32 -63
34 0 8 65 -19 119 -49z m11 -46 c32 -22 62 -45 65 -51 11 -18 -2 -21 -18 -4
-9 8 -19 15 -23 15 -3 0 -14 8 -23 19 -17 19 -95 62 -108 60 -18 -3 -36 1 -30
8 4 3 -1 12 -11 20 -37 29 93 -30 148 -67z m155 27 c17 -23 31 -46 33 -52 2
-5 -1 -3 -7 5 -10 13 -11 13 -11 0 0 -9 -20 6 -46 34 -33 35 -42 51 -33 56 18
12 31 3 64 -43z m-14 -102 c5 -11 16 -31 26 -45 12 -19 13 -21 1 -10 -8 8 -36
47 -62 85 -45 66 -46 68 -11 30 20 -22 41 -49 46 -60z m-644 39 c-3 -3 -12 -4
-19 -1 -8 3 -5 6 6 6 11 1 17 -2 13 -5z m-84 -41 c-7 -2 -21 -2 -30 0 -10 3
-4 5 12 5 17 0 24 -2 18 -5z m-52 -21 c-18 -2 -37 0 -42 5 -5 5 11 6 34 3 41
-4 41 -5 8 -8z m887 -7 c-3 -3 -9 2 -12 12 -6 14 -5 15 5 6 7 -7 10 -15 7 -18z
m-755 8 c-7 -2 -19 -2 -25 0 -7 3 -2 5 12 5 14 0 19 -2 13 -5z m204 1 c-3 -3
-12 -4 -19 -1 -8 3 -5 6 6 6 11 1 17 -2 13 -5z m-100 -20 c-3 -3 -12 -4 -19
-1 -8 3 -5 6 6 6 11 1 17 -2 13 -5z m218 -4 c3 -5 1 -10 -4 -10 -6 0 -11 5
-11 10 0 6 2 10 4 10 3 0 8 -4 11 -10z m-348 -6 c-3 -3 -12 -4 -19 -1 -8 3 -5
6 6 6 11 1 17 -2 13 -5z m142 -20 c2 -2 2 -7 -2 -10 -8 -9 -47 6 -47 17 0 9
37 3 49 -7z m582 -51 c13 -16 12 -17 -3 -4 -10 7 -18 15 -18 17 0 8 8 3 21
-13z m-126 -23 c10 -11 16 -20 13 -20 -3 0 -13 9 -23 20 -10 11 -16 20 -13 20
3 0 13 -9 23 -20z m-54 -7 c13 -16 12 -17 -3 -4 -10 7 -18 15 -18 17 0 8 8 3
21 -13z m-120 -120 c13 -16 12 -17 -3 -4 -10 7 -18 15 -18 17 0 8 8 3 21 -13z
m-465 -190 c-7 -7 -26 7 -26 19 0 6 6 6 15 -2 9 -7 13 -15 11 -17z m-6493 1
c10 -10 -38 -43 -70 -50 -19 -4 -33 -1 -41 9 -20 24 7 38 89 46 9 0 19 -2 22
-5z m6554 -110 c-5 -5 -57 80 -57 93 0 4 14 -14 31 -41 17 -26 28 -50 26 -52z
m27 70 c3 -8 2 -12 -4 -9 -6 3 -10 10 -10 16 0 14 7 11 14 -7z m24 -49 c-3 -3
-9 2 -12 12 -6 14 -5 15 5 6 7 -7 10 -15 7 -18z m-2218 -29 c0 -2 -7 -9 -15
-16 -13 -11 -14 -10 -9 4 5 14 24 23 24 12z m2656 -143 c-4 -4 -36 73 -35 85
0 4 9 -13 20 -37 11 -24 18 -46 15 -48z m-131 -3 c8 -23 10 -38 5 -35 -13 8
-13 -18 -1 -30 5 -6 12 -35 15 -65 l6 -55 -15 57 c-8 32 -24 76 -35 99 -12 22
-19 48 -17 57 4 14 5 13 6 -3 2 -21 31 -67 31 -48 0 6 -7 27 -15 46 -8 20 -15
40 -15 44 1 13 20 -24 35 -67z m172 18 c-3 -8 -6 -5 -6 6 -1 11 2 17 5 13 3
-3 4 -12 1 -19z m-96 -88 c5 0 9 -5 9 -11 0 -5 -5 -7 -12 -3 -8 5 -9 2 -5 -10
4 -10 3 -15 -3 -11 -6 4 -10 12 -8 18 1 7 -8 31 -20 54 -12 23 -22 48 -21 55
0 7 12 -11 25 -39 14 -29 30 -53 35 -53z m57 29 c-3 -8 -7 -3 -11 10 -4 17 -3
21 5 13 5 -5 8 -16 6 -23z m40 -54 c0 -16 -2 -15 -8 5 -11 34 -11 60 0 35 5
-11 8 -29 8 -40z m-18 -9 c0 -26 -6 -18 -14 19 -5 22 -4 26 4 15 5 -8 10 -24
10 -34z m-191 -21 c0 -5 -4 -3 -9 5 -5 8 -9 22 -9 30 0 16 17 -16 18 -35z
m198 -52 c-3 -10 -5 -2 -5 17 0 19 2 27 5 18 2 -10 2 -26 0 -35z m30 25 c-3
-8 -6 -5 -6 6 -1 11 2 17 5 13 3 -3 4 -12 1 -19z m-270 -40 c-3 -8 -6 -5 -6 6
-1 11 2 17 5 13 3 -3 4 -12 1 -19z m250 -70 c-3 -8 -6 -5 -6 6 -1 11 2 17 5
13 3 -3 4 -12 1 -19z m40 -185 c-3 -10 -5 -2 -5 17 0 19 2 27 5 18 2 -10 2
-26 0 -35z m-6530 -151 c20 -7 21 -9 8 -39 -16 -38 -43 -43 -70 -13 -17 19
-17 21 0 40 19 21 26 22 62 12z m-157 -62 c22 -14 -12 -46 -65 -59 -48 -12
-134 -15 -159 -5 -23 9 -20 31 7 45 38 21 192 35 217 19z m6297 -12 c-3 -8 -6
-5 -6 6 -1 11 2 17 5 13 3 -3 4 -12 1 -19z m-6427 -102 c0 -27 -47 -46 -114
-46 -65 0 -86 9 -63 28 35 29 177 44 177 18z m3997 -88 c-3 -7 -5 -2 -5 12 0
14 2 19 5 13 2 -7 2 -19 0 -25z m1243 -130 c0 -19 -13 -33 -29 -33 -8 0 -16
-6 -19 -13 -2 -8 2 -10 14 -5 10 4 -10 -19 -44 -50 -34 -31 -65 -57 -69 -57
-5 0 13 20 40 44 49 45 65 72 24 39 -13 -10 -53 -40 -88 -67 -35 -27 -56 -46
-47 -43 10 3 20 2 23 -3 4 -6 -4 -10 -17 -10 -13 0 -28 -4 -33 -9 -14 -13 -53
-16 -98 -6 -25 5 -42 4 -50 -4 -6 -6 -21 -11 -34 -11 -13 0 -23 -5 -23 -10 0
-6 3 -9 8 -9 4 1 16 1 27 -1 11 -1 -19 -11 -67 -23 -48 -12 -93 -28 -99 -34
-10 -10 -16 -10 -28 0 -12 9 -13 9 -7 -1 5 -8 -6 -18 -36 -31 -24 -11 -36 -20
-28 -20 13 -1 13 -2 0 -11 -8 -6 -32 -15 -53 -20 -25 -7 -35 -15 -30 -23 5 -9
4 -9 -8 0 -11 9 -27 6 -74 -16 -64 -30 -84 -31 -47 -1 12 10 22 22 22 27 0 5
42 30 93 55 50 26 109 58 130 72 56 38 88 53 172 81 88 28 109 31 81 10 -19
-14 -19 -15 10 -14 52 3 186 38 180 48 -3 4 5 15 17 24 12 9 46 34 74 55 29
21 49 43 45 47 -4 5 -2 5 4 2 6 -4 20 2 30 13 22 22 34 25 34 8z m-1 -86 c-7
-10 -18 -19 -25 -19 -11 0 -10 5 3 19 9 10 20 18 25 18 4 0 3 -8 -3 -18z
m-4514 -33 l70 -1 -110 -25 c-142 -32 -226 -42 -355 -42 -198 0 -173 33 38 50
70 5 150 16 177 23 32 8 61 10 80 4 16 -4 61 -8 100 -9z m4450 -19 c-10 -11
-23 -20 -28 -20 -6 0 0 9 13 20 13 11 25 20 28 20 3 0 -3 -9 -13 -20z m-95
-40 c0 -5 -5 -10 -11 -10 -5 0 -7 5 -4 10 3 6 8 10 11 10 2 0 4 -4 4 -10z
m-217 -110 c4 0 6 4 3 9 -3 5 12 4 34 -1 22 -6 40 -16 40 -22 0 -16 -54 -38
-76 -30 -15 4 -16 4 -5 -4 10 -7 4 -10 -23 -9 -23 1 -41 -5 -46 -13 -11 -18 4
-26 23 -13 7 4 1 -2 -13 -15 -14 -13 -43 -32 -65 -43 -22 -11 -32 -17 -22 -15
9 3 17 3 17 1 0 -9 -48 -55 -58 -55 -9 0 -24 -24 -26 -42 -1 -3 -5 -10 -10
-15 -5 -5 -6 -3 -2 5 4 6 3 12 -3 12 -13 0 -34 -38 -27 -48 3 -4 1 -14 -5 -22
-7 -13 -9 -13 -9 0 -1 9 -6 5 -15 -10 -21 -38 -18 -15 4 28 20 37 58 80 96
107 16 12 17 14 4 15 -9 0 -22 -7 -29 -15 -7 -8 -19 -15 -26 -15 -8 0 -14 -6
-14 -12 -1 -7 -14 -29 -31 -48 -18 -21 -27 -27 -23 -15 7 18 6 19 -11 5 -18
-15 -19 -14 -2 10 10 14 25 25 34 25 9 0 19 7 21 15 4 12 3 13 -10 3 -8 -7
-17 -11 -19 -8 -3 2 -33 -21 -69 -51 -61 -52 -97 -71 -69 -38 10 12 10 17 0
23 -13 9 25 43 109 97 25 16 85 64 134 107 96 85 155 121 171 106 5 -5 13 -9
18 -9z m-4006 -76 c-3 -3 -12 -4 -19 -1 -8 3 -5 6 6 6 11 1 17 -2 13 -5z m614
-30 c60 -5 103 -27 82 -41 -6 -5 -45 -8 -87 -7 -58 1 -76 -2 -76 -12 0 -8 5
-14 11 -14 6 0 17 -7 25 -15 20 -20 58 -19 75 1 9 12 24 15 51 11 21 -3 38 -1
38 4 0 12 141 11 159 0 12 -8 12 -12 2 -25 -9 -11 -30 -16 -67 -16 -54 0 -72
-13 -32 -23 26 -7 91 5 178 32 77 25 102 25 155 5 22 -9 76 -17 120 -19 44 -1
105 -9 135 -18 30 -8 82 -19 115 -22 33 -4 63 -9 67 -11 4 -3 42 -7 85 -9 87
-4 180 -22 188 -35 3 -5 -9 -17 -27 -26 -31 -16 -96 -16 -263 -1 -16 2 -43 4
-60 5 -21 2 -26 5 -16 11 7 5 9 11 4 14 -13 8 -112 12 -119 4 -4 -4 -18 -7
-31 -7 -13 0 -23 -4 -23 -9 0 -8 -117 -19 -275 -25 -102 -4 -171 -28 -168 -60
1 -17 -5 -18 -70 -14 -40 3 -83 2 -97 -1 -25 -7 -80 -2 -205 19 -78 13 -152
22 -300 40 -55 6 -118 16 -140 22 -22 7 -67 12 -100 13 -49 1 -347 44 -420 60
-11 3 -67 9 -125 15 -203 18 -596 61 -660 71 -83 13 -100 18 -100 31 0 13 267
3 420 -17 358 -46 975 -114 1145 -126 84 -6 133 -5 139 1 6 6 32 10 58 10 27
0 48 5 48 11 0 7 -59 9 -184 7 -129 -2 -188 0 -196 8 -7 7 -28 10 -50 7 -22
-3 -47 -2 -57 1 -15 6 -12 10 17 23 29 13 69 16 220 14 124 -2 195 -7 216 -16
32 -13 124 -9 124 5 0 10 -30 17 -108 26 -34 4 -65 11 -68 15 -3 5 0 9 7 9 10
0 10 3 2 11 -7 7 -53 13 -110 15 -138 3 -135 3 -128 14 4 6 57 10 125 10 93 0
121 3 127 14 13 24 51 32 111 24 31 -4 82 -11 113 -14z m3559 10 c0 -8 -19
-13 -24 -6 -3 5 1 9 9 9 8 0 15 -2 15 -3z m-1273 -60 c-6 -20 -13 -32 -14 -27
-4 11 14 63 21 63 2 0 -1 -16 -7 -36z m-320 -6 c-3 -8 -6 -5 -6 6 -1 11 2 17
5 13 3 -3 4 -12 1 -19z m-44 -13 c-3 -9 -8 -14 -10 -11 -3 3 -2 9 2 15 9 16
15 13 8 -4z m764 -24 c-10 -59 -32 -69 -40 -18 -4 32 5 47 31 47 9 0 12 -9 9
-29z m142 -8 c-21 -23 -21 -25 -5 -19 19 7 19 6 1 -14 -21 -23 -44 -28 -25 -5
18 22 6 18 -36 -10 -51 -34 -67 -32 -18 3 21 16 53 38 69 50 40 28 43 27 14
-5z m-5241 -9 c4 -27 -32 -39 -53 -17 -18 18 -19 30 -2 37 25 10 52 1 55 -20z
m5296 11 c-10 -8 -23 -15 -28 -15 -6 0 -1 7 10 15 10 8 23 15 28 15 6 0 1 -7
-10 -15z m-1314 -5 c0 -5 -5 -10 -11 -10 -5 0 -7 5 -4 10 3 6 8 10 11 10 2 0
4 -4 4 -10z m-17 -45 c-3 -9 -8 -14 -10 -11 -3 3 -2 9 2 15 9 16 15 13 8 -4z
m285 -5 c-7 -10 -14 -17 -17 -15 -4 4 18 35 25 35 2 0 -1 -9 -8 -20z m109 -32
c-3 -8 -6 -5 -6 6 -1 11 2 17 5 13 3 -3 4 -12 1 -19z m710 -25 c-3 -10 -5 -4
-5 12 0 17 2 24 5 18 2 -7 2 -21 0 -30z m-410 -15 c-3 -8 -6 -5 -6 6 -1 11 2
17 5 13 3 -3 4 -12 1 -19z m-4192 -6 c44 -6 147 -10 229 -11 82 -1 154 -5 160
-10 6 -5 25 -11 41 -14 17 -2 -13 -2 -65 0 -52 3 -105 7 -117 10 -13 3 -23 1
-23 -5 0 -5 37 -15 83 -21 227 -33 590 -90 952 -151 118 -20 460 -70 470 -69
27 3 -140 34 -410 75 -119 19 -236 42 -215 43 9 1 80 -8 158 -19 79 -11 153
-18 165 -15 34 9 271 -20 482 -59 284 -52 557 -89 855 -116 63 -6 183 -20 265
-31 226 -30 234 -34 124 -49 -57 -8 -223 6 -294 25 -11 3 -40 2 -65 -3 l-45
-9 75 -8 c132 -14 124 -26 -15 -21 -138 5 -325 31 -920 127 -203 32 -386 61
-405 64 -19 3 -240 38 -490 79 -419 68 -630 101 -989 156 -74 11 -137 22 -139
25 -10 10 13 26 32 21 11 -2 57 -9 101 -14z m2770 -11 c-15 -7 -6 -10 38 -16
31 -4 60 -11 63 -16 3 -5 16 -9 29 -9 13 0 27 -4 30 -10 3 -6 48 -10 101 -10
77 0 97 -3 112 -18 12 -12 49 -22 111 -31 61 -8 101 -19 113 -31 18 -17 18
-17 -19 -23 -22 -4 -55 -2 -76 4 -25 7 -49 7 -74 0 -48 -14 -83 -14 -83 -1 0
5 15 14 33 19 32 9 32 9 4 10 -15 1 -42 8 -58 17 -20 10 -34 12 -42 6 -13 -10
-233 0 -244 12 -12 11 8 21 60 28 29 3 -11 4 -88 0 -170 -8 -221 -6 -374 13
-39 5 -58 11 -49 16 15 8 95 10 208 4 47 -2 64 -1 45 4 -27 7 -28 9 -10 15 11
4 27 11 35 16 8 5 47 9 85 9 45 0 63 -3 50 -8z m558 -7 c3 -3 1 -17 -5 -30
-11 -23 -15 -25 -67 -19 -86 10 -93 13 -81 36 9 16 22 19 79 19 37 0 70 -3 74
-6z m1507 -13 c-5 -11 -15 -23 -20 -26 -6 -3 -10 -11 -10 -17 0 -6 6 -6 15 2
13 11 14 10 9 -4 -4 -10 -12 -15 -19 -12 -14 5 -48 -31 -41 -43 3 -4 -2 -8
-10 -8 -19 0 -13 16 33 77 37 49 63 68 43 31z m-1023 -39 c-10 -37 -27 -58
-27 -32 0 11 32 81 36 77 1 -1 -3 -21 -9 -45z m-80 16 c-3 -8 -6 -5 -6 6 -1
11 2 17 5 13 3 -3 4 -12 1 -19z m-3189 5 c-10 -2 -26 -2 -35 0 -10 3 -2 5 17
5 19 0 27 -2 18 -5z m2898 -5 c9 -14 -40 -58 -67 -58 -24 0 -25 27 -2 52 18
20 58 24 69 6z m-2806 -9 c-24 -5 -12 -7 40 -4 41 3 93 0 115 -5 34 -7 29 -8
-30 -5 -102 6 -27 -12 90 -22 50 -4 81 -9 70 -11 -11 -3 -95 3 -187 13 -131
14 -165 21 -161 31 3 9 21 14 52 13 l46 -2 -35 -8z m247 -25 c-3 -3 -12 -4
-19 -1 -8 3 -5 6 6 6 11 1 17 -2 13 -5z m2316 -1 c-7 -2 -21 -2 -30 0 -10 3
-4 5 12 5 17 0 24 -2 18 -5z m-706 -20 c-16 -7 -54 -13 -83 -13 -39 0 -54 -4
-54 -14 0 -17 -95 -26 -196 -19 -53 4 -74 10 -74 19 0 16 0 16 58 5 23 -5 45
-5 47 0 3 4 -7 10 -22 12 -21 3 -19 4 12 6 22 1 47 6 55 11 8 6 74 9 151 7
119 -2 132 -4 106 -14z m215 0 c62 5 78 0 78 -20 0 -14 -15 -15 -112 -9 -110
7 -161 19 -128 30 38 12 47 12 77 4 18 -5 56 -7 85 -5z m581 10 c-7 -2 -19 -2
-25 0 -7 3 -2 5 12 5 14 0 19 -2 13 -5z m447 -43 c-21 -18 -37 -21 -120 -21
-52 1 -113 -2 -135 -5 l-40 -6 35 23 c30 20 50 23 145 25 72 2 111 7 113 14 3
8 7 9 15 1 7 -7 4 -17 -13 -31z m-2527 4 c100 -14 186 -29 190 -34 5 -4 -11
-4 -35 0 -23 5 -65 11 -93 14 -27 3 -77 10 -109 16 -33 7 -96 12 -142 13 -45
1 -80 5 -77 10 8 13 79 8 266 -19z m-148 -4 l30 -8 -30 0 c-16 0 -43 4 -60 8
l-30 8 30 0 c17 0 44 -4 60 -8z m3915 -30 c-12 -17 -26 -28 -31 -25 -5 4 3 17
19 30 36 32 38 31 12 -5z m-2545 9 c5 -6 31 -8 74 -3 46 4 75 2 91 -6 12 -7
48 -14 79 -15 126 -8 335 -35 345 -46 11 -11 -50 -7 -104 6 -17 5 -21 4 -12
-3 23 -16 -43 -20 -167 -12 -90 6 -116 11 -123 24 -5 9 -14 14 -19 11 -5 -4
-33 0 -62 8 -28 9 -76 18 -105 22 -28 4 -49 11 -46 16 7 12 41 11 49 -2z m608
-8 c8 -8 -1 -11 -28 -11 -73 0 -175 13 -175 22 0 12 190 2 203 -11z m1709 -33
c-20 -42 -20 -42 -18 -11 1 17 9 39 16 48 22 26 23 9 2 -37z m-2405 36 c-3 -3
-12 -4 -19 -1 -8 3 -5 6 6 6 11 1 17 -2 13 -5z m1381 -26 c-5 -13 -8 -13 -50
-8 -20 2 -19 3 7 10 44 11 47 11 43 -2z m470 -14 c6 -2 12 -8 12 -14 0 -13
-109 -13 -130 0 -15 10 -16 9 30 23 14 4 60 0 88 -9z m-854 -9 c4 -11 -2 -15
-21 -15 -21 0 -24 2 -13 15 7 8 16 15 20 15 4 0 10 -7 14 -15z m561 -9 c55
-18 25 -30 -52 -22 -32 3 -105 9 -163 13 l-105 8 85 6 c142 9 193 8 235 -5z
m489 -16 c38 -6 75 -14 83 -18 23 -13 -131 -1 -162 13 -16 7 -37 15 -45 18
-16 7 10 4 124 -13z m-871 3 c-13 -2 -33 -2 -45 0 -13 2 -3 4 22 4 25 0 35 -2
23 -4z m-293 -32 c36 -6 70 -11 75 -12 27 -4 -100 -17 -175 -18 -109 -1 -158
7 -170 29 -9 16 -1 17 98 14 59 -2 136 -8 172 -13z m308 -15 c-43 -7 -80 -15
-83 -18 -11 -10 200 -18 235 -8 19 5 48 9 65 9 l30 -2 -27 -4 c-33 -5 -37 -23
-5 -23 12 0 65 -5 117 -11 52 -6 109 -10 127 -10 17 0 37 -6 43 -14 11 -13 2
-15 -66 -15 -44 1 -119 8 -169 16 -49 8 -162 19 -250 23 -156 8 -195 14 -195
32 0 4 19 13 43 19 23 6 47 13 52 15 6 2 44 3 85 3 l75 0 -77 -12z m664 -20
c6 -8 8 -7 8 1 0 10 23 11 93 7 107 -7 132 -12 102 -24 -34 -12 -386 -1 -403
13 -13 10 -11 13 14 18 44 8 178 -2 186 -15z m476 -1 c-17 -20 -31 -25 -67
-25 -70 0 -121 11 -121 26 0 14 36 20 142 22 l68 2 -22 -25z m2924 -22 c-6 -2
-9 -10 -5 -16 4 -7 0 -8 -11 -4 -10 4 -20 7 -22 7 -3 0 -2 5 1 10 3 6 16 10
28 9 12 0 16 -3 9 -6z m-3200 -29 c15 -3 31 -10 34 -16 5 -8 -13 -9 -59 -6
-40 4 -70 1 -76 -5 -8 -8 -11 -8 -11 0 0 6 -3 19 -6 28 -6 15 -1 16 42 10 27
-3 61 -9 76 -11z m-202 -14 c11 -7 4 -10 -27 -10 -24 0 -43 5 -43 10 0 13 50
13 70 0z m-650 -30 c12 -8 12 -10 -5 -10 -11 0 -27 5 -35 10 -12 8 -12 10 5
10 11 0 27 -5 35 -10z m1527 -116 c-3 -3 -12 -4 -19 -1 -8 3 -5 6 6 6 11 1 17
-2 13 -5z m-1102 -169 c6 -2 -11 -4 -37 -4 -27 -1 -48 3 -48 7 0 7 62 5 85 -3z
m-412 -22 c-7 -2 -19 -2 -25 0 -7 3 -2 5 12 5 14 0 19 -2 13 -5z m235 0 c-10
-2 -26 -2 -35 0 -10 3 -2 5 17 5 19 0 27 -2 18 -5z m-344 -22 c10 -15 -58 -19
-79 -5 -18 13 -15 14 27 14 26 0 49 -4 52 -9z m-4139 -309 c-3 -3 -11 0 -18 7
-9 10 -8 11 6 5 10 -3 15 -9 12 -12z m5685 -32 c0 -5 8 -10 18 -10 13 0 14 -2
4 -9 -15 -9 -123 6 -136 20 -6 5 13 9 52 9 35 0 62 -4 62 -10z m-5570 -25 c32
-18 25 -18 -25 0 -22 8 -31 14 -20 14 11 0 31 -6 45 -14z m553 -32 c-7 -2 -21
-2 -30 0 -10 3 -4 5 12 5 17 0 24 -2 18 -5z m-93 -15 c-56 -8 -285 -8 -324 1
-16 3 60 6 170 6 109 0 179 -3 154 -7z m5629 -98 c47 -5 89 -14 95 -20 13 -13
-23 -13 -79 -1 -22 5 -65 12 -94 15 -30 4 -57 9 -60 11 -7 8 47 6 138 -5z
m-5370 -14 c-3 -3 -39 -8 -80 -12 -41 -4 -87 -8 -104 -9 -16 -1 -67 -8 -112
-15 -45 -6 -88 -10 -95 -8 -12 4 104 23 232 37 78 9 165 13 159 7z m-439 -46
c0 -5 -15 -10 -32 -9 -28 0 -30 2 -13 9 28 12 45 12 45 0z m5065 -234 c-10 -7
-27 -11 -37 -8 -27 7 -11 22 25 22 28 0 29 -1 12 -14z m-65 -6 c0 -7 -14 -8
-37 -4 -52 9 -54 14 -5 14 23 0 42 -5 42 -10z m-363 -106 c-3 -3 -12 -4 -19
-1 -8 3 -5 6 6 6 11 1 17 -2 13 -5z m-407 -64 c41 -7 105 -14 143 -17 48 -4
67 -9 67 -19 0 -17 -42 -18 -58 -2 -10 10 -15 10 -21 -1 -9 -15 -49 -12 -135
9 -36 9 -70 10 -129 2 -64 -8 -83 -8 -94 3 -18 19 -16 33 5 37 28 6 141 0 222
-12z m257 -46 c-3 -3 -12 -4 -19 -1 -8 3 -5 6 6 6 11 1 17 -2 13 -5z m-1298
-90 c2 -2 -21 -4 -52 -4 -33 0 -57 4 -57 10 0 10 98 4 109 -6z"/>
<path d="M6150 8444 c-25 -9 -29 -13 -15 -15 11 -1 24 -1 29 0 5 1 6 -5 2 -14
-3 -10 -2 -13 4 -10 6 4 26 8 44 10 19 1 42 8 52 15 17 10 16 11 -8 6 -14 -3
-34 -9 -44 -13 -13 -5 -15 -3 -9 8 8 12 6 12 -8 0 -19 -15 -23 -1 -5 17 15 15
4 14 -42 -4z"/>
<path d="M6040 8410 c-9 -6 -10 -10 -3 -10 6 0 15 5 18 10 8 12 4 12 -15 0z"/>
<path d="M6130 8410 c0 -5 5 -10 11 -10 5 0 7 5 4 10 -3 6 -8 10 -11 10 -2 0
-4 -4 -4 -10z"/>
<path d="M5947 8388 c-15 -5 -25 -14 -21 -19 8 -13 -10 -11 -24 3 -8 8 -21 2
-52 -25 -22 -21 -37 -37 -33 -37 4 0 -6 -14 -23 -32 l-29 -31 27 19 c15 10 28
23 28 27 0 5 5 5 10 2 6 -4 7 -11 4 -17 -4 -7 -2 -8 4 -4 6 4 9 13 6 20 -3 8
0 17 5 21 6 3 9 9 7 13 -2 4 7 8 20 8 15 1 21 -2 17 -10 -4 -6 1 -5 10 3 16
12 22 8 18 -12 -1 -5 12 0 28 9 17 10 28 20 26 22 -3 3 -11 -1 -20 -8 -9 -7
-18 -10 -21 -7 -10 9 20 46 36 44 8 -1 16 2 18 8 5 14 -9 15 -41 3z m-42 -29
c11 -17 -1 -21 -15 -4 -8 9 -8 15 -2 15 6 0 14 -5 17 -11z"/>
<path d="M6237 8384 c-3 -3 -22 -12 -42 -18 -36 -13 -36 -13 29 -12 36 1 66 4
66 9 0 4 -12 7 -27 8 -25 0 -26 1 -8 9 15 6 16 9 4 9 -9 1 -18 -2 -22 -5z"/>
<path d="M6341 8381 c-10 -7 -8 -11 10 -16 13 -4 27 -13 32 -19 5 -8 9 -7 16
2 4 8 15 12 22 10 8 -2 15 2 16 7 2 6 -18 9 -45 8 -34 -1 -41 1 -27 7 13 6 15
9 5 9 -8 0 -21 -3 -29 -8z"/>
<path d="M5810 8370 c0 -5 10 -10 23 -10 18 0 19 2 7 10 -19 13 -30 13 -30 0z"/>
<path d="M5767 8363 c-14 -13 -6 -21 16 -16 18 4 19 3 7 -6 -8 -6 -10 -11 -4
-11 16 0 23 10 17 26 -5 15 -25 19 -36 7z"/>
<path d="M6437 8347 c-20 -10 -52 -20 -70 -22 -17 -2 -46 -8 -63 -13 -17 -5
-58 -9 -91 -7 -36 2 -69 -3 -84 -11 -22 -12 -22 -13 -4 -14 16 0 17 -2 5 -9
-30 -17 -63 -24 -55 -11 4 7 -5 5 -24 -4 -37 -20 -41 -29 -6 -16 14 5 25 6 25
1 0 -5 -10 -11 -22 -14 -12 -4 -19 -9 -15 -13 3 -4 17 0 29 8 14 9 31 12 43 8
17 -6 14 -10 -25 -30 -25 -13 -39 -25 -32 -28 7 -2 21 2 30 10 9 8 31 20 47
27 l30 13 -30 12 -29 12 44 18 c81 33 77 32 61 13 -11 -14 -11 -17 0 -17 8 0
21 5 29 10 13 9 13 11 0 20 -11 7 -11 10 -2 10 7 0 15 -6 18 -13 3 -9 18 -13
38 -12 40 3 63 14 47 24 -6 4 8 7 32 8 23 0 60 6 82 13 22 7 54 12 70 12 18 0
22 2 11 5 -14 4 -15 7 -6 13 27 17 -47 14 -83 -3z"/>
<path d="M5700 8349 c0 -5 5 -7 10 -4 6 3 10 8 10 11 0 2 -4 4 -10 4 -5 0 -10
-5 -10 -11z"/>
<path d="M6315 8351 c-3 -5 0 -13 6 -17 8 -4 9 -3 5 5 -6 9 0 10 21 6 21 -5
24 -4 13 4 -19 13 -37 14 -45 2z"/>
<path d="M7355 8350 c-4 -6 14 -10 46 -10 61 0 61 5 2 14 -24 3 -44 2 -48 -4z"/>
<path d="M6229 8341 c11 -7 11 -9 0 -14 -8 -3 -4 -6 9 -6 25 -1 30 14 6 23
-23 9 -31 7 -15 -3z"/>
<path d="M5985 8330 c-16 -7 -17 -9 -3 -9 9 -1 20 4 23 9 7 11 7 11 -20 0z"/>
<path d="M5430 8315 c-34 -13 -35 -13 -7 -14 19 -1 26 -5 21 -13 -5 -7 -3 -8
5 -4 7 5 10 11 6 14 -3 3 7 11 22 18 40 18 -1 17 -47 -1z"/>
<path d="M5664 8320 c17 -6 18 -7 3 -13 -9 -3 -19 -2 -22 2 -3 5 -15 7 -28 3
-26 -6 -69 -37 -61 -45 7 -7 45 4 40 12 -2 3 14 7 37 7 l41 2 -23 -19 c-13
-10 -19 -19 -13 -19 5 0 15 7 22 15 7 9 19 14 27 11 8 -3 11 -1 8 4 -3 6 -1
10 6 10 7 0 9 3 5 7 -3 4 2 12 13 18 17 9 13 11 -27 11 -28 1 -39 -1 -28 -6z"/>
<path d="M5874 8313 c3 -6 0 -13 -6 -16 -7 -2 -11 -7 -8 -10 3 -3 12 -2 20 3
13 8 13 11 1 22 -8 8 -11 8 -7 1z"/>
<path d="M5080 8298 c0 -18 18 -34 28 -24 3 4 -2 14 -11 23 -16 16 -17 16 -17
1z"/>
<path d="M5735 8300 c3 -5 8 -10 11 -10 2 0 4 5 4 10 0 6 -5 10 -11 10 -5 0
-7 -4 -4 -10z"/>
<path d="M6405 8293 c-16 -9 -32 -19 -35 -22 -3 -4 -18 -12 -35 -19 l-30 -13
25 21 c14 11 20 20 15 20 -6 0 -16 -5 -23 -12 -6 -6 -32 -11 -57 -10 -25 0
-48 -5 -52 -11 -4 -6 0 -8 10 -4 28 11 19 -2 -14 -18 -42 -22 -31 -29 15 -10
21 9 35 11 31 6 -3 -6 -13 -11 -22 -11 -9 0 -14 -3 -11 -6 4 -3 38 6 78 20 39
14 68 21 65 16 -4 -7 2 -9 19 -4 36 9 33 -2 -4 -15 -18 -6 -28 -6 -25 -1 9 14
5 13 -44 -11 -24 -11 -57 -19 -74 -18 -42 4 -84 -9 -91 -27 -3 -8 -2 -12 3 -9
5 3 12 1 16 -5 3 -5 11 -10 18 -10 6 0 2 6 -8 14 -18 13 -18 14 8 9 16 -3 38
-1 50 5 12 6 31 13 42 16 20 6 20 6 1 -9 -30 -23 -13 -18 70 20 42 20 74 38
70 42 -3 3 0 13 7 21 10 13 9 14 -11 3 -13 -7 -26 -11 -28 -8 -9 9 27 29 55
31 16 1 33 5 38 9 4 5 -1 5 -11 1 -14 -5 -17 -4 -12 4 10 17 -13 14 -49 -5z"/>
<path d="M6008 8293 c7 -3 16 -2 19 1 4 3 -2 6 -13 5 -11 0 -14 -3 -6 -6z"/>
<path d="M5724 8282 c3 -6 1 -12 -6 -14 -7 -3 -5 -7 6 -11 11 -5 15 -3 10 5
-5 8 -2 9 9 5 9 -3 19 -1 23 6 4 7 4 9 -1 5 -4 -4 -17 -3 -28 3 -12 7 -17 7
-13 1z"/>
<path d="M5393 8269 c3 -9 -5 -23 -19 -34 -13 -10 -24 -22 -24 -28 0 -5 6 -5
13 2 8 6 17 9 20 6 4 -3 5 -2 2 1 -2 4 7 15 20 26 14 11 25 25 25 31 0 7 -4 6
-10 -3 -9 -13 -11 -13 -21 0 -10 13 -10 13 -6 -1z"/>
<path d="M5510 8270 c-8 -5 -10 -10 -5 -10 6 0 17 5 25 10 8 5 11 10 5 10 -5
0 -17 -5 -25 -10z"/>
<path d="M5909 8263 c-13 -16 -12 -17 4 -4 9 7 17 15 17 17 0 8 -8 3 -21 -13z"/>
<path d="M6805 8270 c-3 -6 1 -7 9 -4 18 7 21 14 7 14 -6 0 -13 -4 -16 -10z"/>
<path d="M5446 8254 c-5 -14 -4 -15 9 -4 17 14 19 20 6 20 -5 0 -12 -7 -15
-16z"/>
<path d="M5829 8243 c-13 -16 -12 -17 4 -4 9 7 17 15 17 17 0 8 -8 3 -21 -13z"/>
<path d="M5990 8250 c-12 -8 -12 -10 -1 -10 11 0 11 -3 1 -15 -11 -13 -10 -14
3 -9 9 3 15 14 14 25 -1 10 -1 19 -2 19 0 0 -7 -5 -15 -10z"/>
<path d="M6145 8250 c-13 -6 -15 -9 -5 -9 8 0 22 4 30 9 18 12 2 12 -25 0z"/>
<path d="M5800 8242 c0 -7 -5 -12 -11 -12 -16 0 -69 -53 -62 -63 3 -5 16 1 29
14 13 12 21 26 18 30 -3 5 1 6 9 3 14 -5 33 24 22 34 -3 3 -5 0 -5 -6z"/>
<path d="M5080 8233 c0 -6 -3 -20 -7 -30 -7 -17 -6 -17 11 0 14 14 16 21 7 30
-8 8 -11 8 -11 0z"/>
<path d="M5576 8209 c-28 -24 -34 -34 -24 -40 10 -7 6 -15 -17 -34 -17 -15
-21 -22 -10 -16 27 12 60 50 51 58 -3 4 6 19 21 35 35 37 27 36 -21 -3z"/>
<path d="M5679 8213 l-24 -28 28 24 c25 23 32 31 24 31 -2 0 -14 -12 -28 -27z"/>
<path d="M6165 8230 c-3 -6 1 -7 9 -4 18 7 21 14 7 14 -6 0 -13 -4 -16 -10z"/>
<path d="M6899 8218 c-12 -23 -12 -23 10 -4 23 21 26 26 11 26 -5 0 -15 -10
-21 -22z"/>
<path d="M5622 8210 c-24 -22 -27 -30 -13 -30 5 0 16 11 25 25 20 30 17 32
-12 5z"/>
<path d="M5704 8208 l-19 -23 23 19 c21 18 27 26 19 26 -2 0 -12 -10 -23 -22z"/>
<path d="M5845 8220 c-4 -6 -11 -7 -17 -4 -7 4 -8 2 -4 -5 6 -9 11 -9 22 0 14
11 18 19 10 19 -3 0 -8 -5 -11 -10z"/>
<path d="M7035 8210 c-10 -11 -16 -22 -13 -25 2 -3 14 6 26 20 26 30 13 34
-13 5z"/>
<path d="M5890 8209 c0 -5 -4 -8 -8 -5 -5 3 -9 -1 -9 -9 0 -10 5 -11 19 -4 10
6 16 14 13 20 -8 12 -15 12 -15 -2z"/>
<path d="M5033 8174 c0 -25 17 -37 35 -25 8 5 5 14 -12 28 l-23 21 0 -24z"/>
<path d="M5175 8170 c-18 -20 -18 -21 5 -12 13 5 26 14 28 20 6 19 -13 14 -33
-8z"/>
<path d="M5655 8170 c-3 -5 -2 -10 4 -10 5 0 13 5 16 10 3 6 2 10 -4 10 -5 0
-13 -4 -16 -10z"/>
<path d="M5835 8170 c-3 -6 1 -7 9 -4 18 7 21 14 7 14 -6 0 -13 -4 -16 -10z"/>
<path d="M6693 8164 c0 -16 13 -19 21 -5 3 5 0 11 -7 14 -8 3 -14 -1 -14 -9z"/>
<path d="M5799 8143 c-12 -16 -12 -17 2 -6 9 7 20 9 24 5 5 -4 5 -1 1 6 -9 16
-11 15 -27 -5z"/>
<path d="M6283 8133 c-12 -24 -8 -23 56 8 l36 17 -41 -1 c-31 -2 -43 -7 -51
-24z"/>
<path d="M5477 8105 c-19 -26 -22 -36 -9 -34 4 1 6 5 5 10 -2 4 4 6 12 3 11
-5 15 1 15 20 0 32 0 32 -23 1z"/>
<path d="M6305 8110 c-3 -5 -2 -10 4 -10 5 0 13 5 16 10 3 6 2 10 -4 10 -5 0
-13 -4 -16 -10z"/>
<path d="M5879 8095 c-1 -3 -2 -11 -3 -17 -1 -7 -10 -12 -20 -11 -13 1 -15 -2
-7 -10 13 -13 33 3 37 28 2 13 -4 22 -7 10z"/>
<path d="M6807 8060 c-24 -25 -25 -29 -8 -27 11 0 19 4 18 7 -1 3 4 15 11 28
16 29 13 27 -21 -8z"/>
<path d="M5233 8058 c-1 -10 0 -18 2 -18 2 0 9 8 14 18 7 14 6 19 -3 19 -6 0
-13 -9 -13 -19z"/>
<path d="M6575 8070 c-3 -5 -2 -10 4 -10 5 0 13 5 16 10 3 6 2 10 -4 10 -5 0
-13 -4 -16 -10z"/>
<path d="M4894 8055 c-3 -8 -4 -20 -1 -27 3 -7 6 -3 6 9 1 12 7 24 14 26 9 4
9 6 -1 6 -7 1 -15 -6 -18 -14z"/>
<path d="M6160 8060 c-8 -5 -10 -10 -5 -10 6 0 17 5 25 10 8 5 11 10 5 10 -5
0 -17 -5 -25 -10z"/>
<path d="M4915 8040 c3 -5 8 -10 11 -10 2 0 4 5 4 10 0 6 -5 10 -11 10 -5 0
-7 -4 -4 -10z"/>
<path d="M5230 8019 c0 -5 5 -7 10 -4 6 3 10 8 10 11 0 2 -4 4 -10 4 -5 0 -10
-5 -10 -11z"/>
<path d="M5774 8008 c-19 -23 -19 -23 2 -5 11 9 24 14 29 10 4 -5 5 -2 1 5 -9
16 -10 16 -32 -10z"/>
<path d="M5170 8000 c-6 -11 -8 -20 -6 -20 3 0 10 9 16 20 6 11 8 20 6 20 -3
0 -10 -9 -16 -20z"/>
<path d="M5396 8003 c-6 -14 -5 -15 5 -6 7 7 10 15 7 18 -3 3 -9 -2 -12 -12z"/>
<path d="M6103 8003 c-18 -9 -33 -20 -33 -25 0 -14 14 -8 45 17 35 29 32 30
-12 8z"/>
<path d="M5899 7972 c-23 -20 -27 -29 -16 -29 9 0 19 8 22 17 3 10 15 22 28
28 12 6 16 11 10 11 -7 1 -27 -12 -44 -27z"/>
<path d="M5176 7958 c-15 -21 -16 -21 -16 -3 0 16 -2 17 -10 5 -6 -9 -5 -17 2
-21 6 -4 7 -12 4 -18 -4 -6 -5 -11 -3 -11 3 0 14 16 26 35 23 39 21 47 -3 13z"/>
<path d="M5095 7900 c-4 -6 -10 -8 -15 -5 -4 3 -14 -3 -21 -13 -13 -15 -12
-16 4 -3 20 16 23 -1 4 -21 -8 -7 -19 -25 -26 -38 -11 -23 -11 -23 9 3 12 15
27 24 32 21 7 -4 8 -2 4 5 -4 6 0 23 8 36 9 14 14 25 12 25 -3 0 -8 -5 -11
-10z"/>
<path d="M6163 7900 c-13 -5 -23 -11 -23 -14 0 -7 40 6 46 15 6 10 6 10 -23
-1z"/>
<path d="M5106 7873 c-6 -14 -5 -15 5 -6 7 7 10 15 7 18 -3 3 -9 -2 -12 -12z"/>
<path d="M5231 7826 c-6 -8 -11 -18 -10 -22 3 -20 -2 -35 -10 -29 -5 3 -13 0
-17 -6 -4 -8 -3 -9 4 -5 7 4 12 3 12 -3 0 -5 -4 -13 -10 -16 -5 -3 -10 -11
-10 -16 0 -6 16 11 36 36 19 26 33 50 30 53 -3 3 -6 0 -6 -6 0 -7 -5 -12 -10
-12 -7 0 -7 6 0 20 12 23 8 26 -9 6z"/>
<path d="M4975 7809 c-4 -6 -5 -12 -2 -15 2 -3 7 2 10 11 7 17 1 20 -8 4z"/>
<path d="M6105 7800 c-3 -5 -2 -10 4 -10 5 0 13 5 16 10 3 6 2 10 -4 10 -5 0
-13 -4 -16 -10z"/>
<path d="M5165 7770 c-3 -5 -1 -10 4 -10 6 0 11 5 11 10 0 6 -2 10 -4 10 -3 0
-8 -4 -11 -10z"/>
<path d="M5445 7749 c-4 -6 -5 -12 -2 -15 2 -3 7 2 10 11 7 17 1 20 -8 4z"/>
<path d="M5480 7720 c-7 -17 -17 -33 -23 -37 -6 -4 -7 -1 -3 8 4 8 0 5 -8 -5
-9 -11 -16 -27 -15 -35 0 -12 3 -10 9 4 7 17 9 14 9 -13 1 -43 18 -32 26 16 4
20 11 48 16 61 5 13 8 25 6 28 -2 2 -10 -10 -17 -27z"/>
<path d="M4975 7729 c-4 -6 -5 -12 -2 -15 2 -3 7 2 10 11 7 17 1 20 -8 4z"/>
<path d="M4886 7684 c-4 -9 -4 -19 -1 -22 2 -3 7 3 11 12 4 9 4 19 1 22 -2 3
-7 -3 -11 -12z"/>
<path d="M5495 7689 c-4 -6 -5 -12 -2 -15 2 -3 7 2 10 11 7 17 1 20 -8 4z"/>
<path d="M5396 7645 c-9 -26 -7 -32 5 -12 6 10 9 21 6 23 -2 3 -7 -2 -11 -11z"/>
<path d="M5126 7633 c-6 -14 -5 -15 5 -6 7 7 10 15 7 18 -3 3 -9 -2 -12 -12z"/>
<path d="M5435 7558 c-1 -39 7 -33 18 13 4 17 2 26 -6 26 -7 0 -12 -15 -12
-39z"/>
<path d="M5408 7502 c-3 -12 -2 -22 2 -22 4 0 6 -10 3 -22 -3 -19 -2 -20 6 -7
6 9 7 28 2 45 -7 27 -8 28 -13 6z"/>
<path d="M5331 7484 c0 -11 3 -14 6 -6 3 7 2 16 -1 19 -3 4 -6 -2 -5 -13z"/>
<path d="M5351 7410 l2 -65 7 55 c4 30 3 59 -1 65 -5 5 -8 -19 -8 -55z"/>
<path d="M5421 7413 c0 -10 4 -36 9 -58 8 -38 8 -37 7 18 -1 31 -5 57 -9 57
-4 0 -8 -8 -7 -17z"/>
<path d="M5371 7404 c0 -11 3 -14 6 -6 3 7 2 16 -1 19 -3 4 -6 -2 -5 -13z"/>
<path d="M5222 7240 c0 -14 2 -19 5 -12 2 6 2 18 0 25 -3 6 -5 1 -5 -13z"/>
<path d="M5173 7131 l-32 -66 29 33 c17 18 30 39 30 48 0 8 5 12 10 9 11 -7
12 2 2 26 -5 11 -16 -4 -39 -50z"/>
<path d="M4990 7181 c0 -6 4 -13 10 -16 6 -3 7 1 4 9 -7 18 -14 21 -14 7z"/>
<path d="M5237 7174 c-4 -4 -7 -15 -7 -25 0 -10 -8 -24 -18 -31 -10 -7 -27
-26 -37 -43 -18 -29 -18 -29 13 4 29 32 38 33 32 6 -1 -5 2 -6 7 -2 4 5 8 12
9 15 0 4 4 19 8 34 9 30 5 53 -7 42z"/>
<path d="M5000 7116 c-6 -13 -10 -32 -7 -42 4 -17 5 -16 6 2 0 12 7 27 15 33
20 17 30 -28 11 -49 -10 -11 -12 -25 -6 -45 8 -29 8 -29 15 -7 4 13 5 26 2 29
-3 3 1 15 9 25 10 15 11 26 3 44 -15 32 -33 36 -48 10z"/>
<path d="M4570 7090 c0 -5 7 -10 16 -10 8 0 12 5 9 10 -3 6 -10 10 -16 10 -5
0 -9 -4 -9 -10z"/>
<path d="M5110 7091 c0 -6 4 -13 10 -16 6 -3 7 1 4 9 -7 18 -14 21 -14 7z"/>
<path d="M5086 7065 c-3 -9 -6 -26 -5 -38 1 -16 4 -12 10 12 10 34 6 55 -5 26z"/>
<path d="M4731 6984 c0 -11 3 -14 6 -6 3 7 2 16 -1 19 -3 4 -6 -2 -5 -13z"/>
<path d="M4495 6960 c3 -5 8 -10 11 -10 2 0 4 5 4 10 0 6 -5 10 -11 10 -5 0
-7 -4 -4 -10z"/>
<path d="M4692 6905 c0 -16 2 -22 5 -12 2 9 2 23 0 30 -3 6 -5 -1 -5 -18z"/>
<path d="M4455 6640 c-3 -6 1 -7 9 -4 18 7 21 14 7 14 -6 0 -13 -4 -16 -10z"/>
<path d="M4580 6560 c0 -5 5 -10 11 -10 5 0 7 5 4 10 -3 6 -8 10 -11 10 -2 0
-4 -4 -4 -10z"/>
<path d="M4429 6430 c-13 -10 -21 -19 -18 -20 16 -1 69 23 69 31 0 15 -27 10
-51 -11z"/>
<path d="M4526 6181 c-4 -7 -5 -15 -2 -18 9 -9 19 4 14 18 -4 11 -6 11 -12 0z"/>
<path d="M4049 6123 c-13 -16 -12 -17 4 -4 9 7 17 15 17 17 0 8 -8 3 -21 -13z"/>
<path d="M4736 5974 c-8 -22 -8 -26 3 -20 5 4 12 0 14 -6 3 -7 6 -3 6 9 1 27
-15 39 -23 17z"/>
<path d="M4755 5220 c-3 -5 -2 -10 4 -10 5 0 13 5 16 10 3 6 2 10 -4 10 -5 0
-13 -4 -16 -10z"/>
<path d="M5028 4786 c-20 -15 -23 -26 -8 -26 5 0 14 9 20 20 12 23 11 24 -12
6z"/>
<path d="M4705 4250 c-3 -5 -1 -10 4 -10 6 0 11 5 11 10 0 6 -2 10 -4 10 -3 0
-8 -4 -11 -10z"/>
<path d="M5084 4057 c-20 -18 -33 -37 -27 -40 11 -7 80 60 71 69 -4 3 -23 -10
-44 -29z"/>
<path d="M5113 3963 c-7 -15 -11 -29 -8 -32 7 -6 34 31 35 47 0 21 -14 13 -27
-15z"/>
<path d="M5141 3924 c0 -11 3 -14 6 -6 3 7 2 16 -1 19 -3 4 -6 -2 -5 -13z"/>
<path d="M5131 3889 c-1 -9 -10 -24 -21 -34 -20 -19 -27 -45 -11 -45 12 0 43
68 37 83 -2 7 -5 6 -5 -4z"/>
<path d="M5060 3824 c0 -8 -4 -12 -10 -9 -6 3 -7 -1 -4 -10 5 -12 9 -13 20 -4
16 13 19 39 4 39 -5 0 -10 -7 -10 -16z"/>
<path d="M4296 3624 c-23 -22 -20 -37 3 -24 25 13 34 27 22 34 -5 4 -17 -1
-25 -10z"/>
<path d="M4896 3538 c-9 -12 -13 -24 -11 -27 5 -5 45 34 45 44 0 13 -20 3 -34
-17z"/>
<path d="M4565 3480 c-9 -16 -12 -30 -8 -30 4 0 2 -5 -5 -12 -7 -7 -12 -19
-12 -27 1 -13 4 -12 15 4 9 10 14 24 12 29 -2 6 5 19 15 30 20 22 23 36 8 36
-5 0 -16 -13 -25 -30z"/>
<path d="M4277 3403 c-4 -3 -7 -11 -7 -17 0 -6 5 -5 12 2 6 6 9 14 7 17 -3 3
-9 2 -12 -2z"/>
<path d="M2765 7240 c4 -6 11 -8 16 -5 14 9 11 15 -7 15 -8 0 -12 -5 -9 -10z"/>
<path d="M2515 7060 c-3 -5 3 -10 14 -10 12 0 21 5 21 10 0 6 -6 10 -14 10 -8
0 -18 -4 -21 -10z"/>
<path d="M2090 6900 c0 -5 9 -10 19 -10 11 0 23 5 26 10 4 6 -5 10 -19 10 -14
0 -26 -4 -26 -10z"/>
<path d="M2038 6893 c7 -3 16 -2 19 1 4 3 -2 6 -13 5 -11 0 -14 -3 -6 -6z"/>
<path d="M6729 8103 c-13 -16 -12 -17 4 -4 9 7 17 15 17 17 0 8 -8 3 -21 -13z"/>
<path d="M6375 8070 c-3 -6 1 -7 9 -4 18 7 21 14 7 14 -6 0 -13 -4 -16 -10z"/>
<path d="M5827 7783 c-4 -3 -7 -11 -7 -17 0 -6 5 -5 12 2 6 6 9 14 7 17 -3 3
-9 2 -12 -2z"/>
<path d="M7930 7220 c0 -5 5 -10 10 -10 6 0 10 5 10 10 0 6 -4 10 -10 10 -5 0
-10 -4 -10 -10z"/>
<path d="M6436 7261 c-4 -7 -5 -15 -2 -18 9 -9 19 4 14 18 -4 11 -6 11 -12 0z"/>
<path d="M6520 7250 c0 -18 25 -21 56 -9 24 10 26 13 10 17 -10 2 -23 -1 -29
-7 -14 -14 -30 -14 -22 -1 3 6 1 10 -4 10 -6 0 -11 -5 -11 -10z"/>
<path d="M6628 7067 c-27 -6 -48 -15 -48 -20 0 -5 10 -6 23 -2 12 3 37 10 55
15 35 9 55 21 31 19 -8 -1 -35 -6 -61 -12z"/>
<path d="M6448 7043 c7 -3 16 -2 19 1 4 3 -2 6 -13 5 -11 0 -14 -3 -6 -6z"/>
<path d="M6408 6973 c6 -2 18 -2 25 0 6 3 1 5 -13 5 -14 0 -19 -2 -12 -5z"/>
<path d="M6510 6860 c-8 -5 -10 -10 -5 -10 6 0 17 5 25 10 8 5 11 10 5 10 -5
0 -17 -5 -25 -10z"/>
<path d="M5100 6930 c0 -6 -4 -9 -9 -6 -5 3 -11 0 -14 -8 -6 -16 18 -15 34 1
8 8 8 13 0 17 -6 4 -11 2 -11 -4z"/>
<path d="M8080 5709 c0 -3 11 -20 25 -39 14 -19 25 -30 25 -24 0 10 -49 73
-50 63z"/>
<path d="M6130 3660 c-13 -8 -13 -10 2 -10 9 0 20 5 23 10 8 13 -5 13 -25 0z"/>
<path d="M5785 3540 c-8 -13 5 -13 25 0 13 8 13 10 -2 10 -9 0 -20 -4 -23 -10z"/>
<path d="M5705 3504 c-13 -10 -15 -14 -4 -14 20 0 43 16 32 23 -4 3 -17 -1
-28 -9z"/>
<path d="M5640 3470 c-9 -6 -10 -10 -3 -10 6 0 15 5 18 10 8 12 4 12 -15 0z"/>
<path d="M6016 3559 c-15 -9 -16 -13 -5 -20 10 -6 8 -9 -8 -9 -13 0 -23 -4
-23 -10 0 -6 9 -6 26 0 33 13 72 40 57 40 -7 0 -15 -4 -18 -10 -3 -5 -11 -10
-17 -10 -7 0 -6 6 2 15 15 18 12 18 -14 4z"/>
<path d="M6095 3561 c-3 -6 3 -9 14 -8 11 0 17 5 15 9 -7 11 -22 10 -29 -1z"/>
<path d="M5950 3499 c0 -5 5 -7 10 -4 6 3 10 8 10 11 0 2 -4 4 -10 4 -5 0 -10
-5 -10 -11z"/>
<path d="M5966 3464 c-4 -10 -1 -14 6 -12 15 5 23 28 10 28 -5 0 -13 -7 -16
-16z"/>
<path d="M5888 3435 c-39 -26 -56 -45 -39 -45 6 0 11 4 11 8 0 5 16 17 35 28
19 10 35 22 35 26 0 10 1 11 -42 -17z"/>
<path d="M5785 3360 c-3 -6 1 -7 9 -4 18 7 21 14 7 14 -6 0 -13 -4 -16 -10z"/>
<path d="M2505 3430 c-28 -7 -28 -8 12 -9 23 0 45 4 48 9 7 11 -16 11 -60 0z"/>
<path d="M2745 3340 c-11 -5 -33 -9 -50 -10 -16 0 -43 -7 -60 -14 -27 -11 -20
-13 73 -12 56 0 102 3 102 7 0 10 -29 39 -38 38 -4 0 -16 -4 -27 -9z"/>
<path d="M3168 3320 c-60 -10 -72 -18 -58 -35 8 -10 7 -14 -2 -18 -7 -3 -3 -6
10 -6 12 -1 22 5 22 13 0 14 42 26 91 26 35 0 46 16 16 24 -12 3 -24 5 -27 5
-3 -1 -26 -5 -52 -9z"/>
<path d="M3288 3293 c7 -3 16 -2 19 1 4 3 -2 6 -13 5 -11 0 -14 -3 -6 -6z"/>
<path d="M3401 3291 c-11 -7 -11 -9 0 -13 19 -6 59 3 59 13 0 11 -41 11 -59 0z"/>
<path d="M2860 3280 l-35 -7 30 -3 c17 -1 -13 -9 -65 -17 -69 -10 -106 -11
-134 -4 -35 9 -42 7 -54 -10 -16 -23 -43 -24 -136 -4 -55 12 -72 12 -78 2 -5
-8 4 -14 30 -19 20 -4 64 -12 97 -19 33 -6 92 -11 130 -10 39 1 102 -3 140
-10 48 -7 81 -8 105 -1 34 10 33 10 -25 12 -57 2 -130 17 -93 19 9 1 18 5 20
11 2 5 41 15 88 21 46 5 109 19 140 29 l55 19 -90 -1 c-49 0 -106 -4 -125 -8z"/>
<path d="M3608 3273 c7 -3 16 -2 19 1 4 3 -2 6 -13 5 -11 0 -14 -3 -6 -6z"/>
<path d="M2178 3033 c7 -3 16 -2 19 1 4 3 -2 6 -13 5 -11 0 -14 -3 -6 -6z"/>
<path d="M2335 3010 c27 -12 43 -12 25 0 -8 5 -22 9 -30 9 -10 0 -8 -3 5 -9z"/>
<path d="M2388 2993 c7 -3 16 -2 19 1 4 3 -2 6 -13 5 -11 0 -14 -3 -6 -6z"/>
<path d="M2438 2983 c6 -2 18 -2 25 0 6 3 1 5 -13 5 -14 0 -19 -2 -12 -5z"/>
<path d="M2515 2969 c22 -4 54 -8 70 -7 26 0 25 1 -10 9 -22 4 -53 8 -70 7
-26 0 -25 -1 10 -9z"/>
<path d="M2493 2953 c9 -2 23 -2 30 0 6 3 -1 5 -18 5 -16 0 -22 -2 -12 -5z"/>
<path d="M2548 2943 c6 -2 18 -2 25 0 6 3 1 5 -13 5 -14 0 -19 -2 -12 -5z"/>
<path d="M2818 2933 c7 -3 16 -2 19 1 4 3 -2 6 -13 5 -11 0 -14 -3 -6 -6z"/>
<path d="M2698 2923 c7 -3 16 -2 19 1 4 3 -2 6 -13 5 -11 0 -14 -3 -6 -6z"/>
<path d="M2835 2911 c6 -4 37 -11 70 -14 68 -6 46 7 -30 17 -28 3 -45 2 -40
-3z"/>
<path d="M3000 2910 c0 -5 -7 -10 -17 -10 -24 0 -13 -6 24 -13 23 -5 32 -3 30
6 -4 22 -37 37 -37 17z"/>
<path d="M3373 2843 c9 -2 23 -2 30 0 6 3 -1 5 -18 5 -16 0 -22 -2 -12 -5z"/>
<path d="M3433 2833 c9 -2 23 -2 30 0 6 3 -1 5 -18 5 -16 0 -22 -2 -12 -5z"/>
<path d="M3503 2823 c9 -2 23 -2 30 0 6 3 -1 5 -18 5 -16 0 -22 -2 -12 -5z"/>
<path d="M4413 2903 c9 -2 23 -2 30 0 6 3 -1 5 -18 5 -16 0 -22 -2 -12 -5z"/>
<path d="M825 1880 c127 -7 386 -44 463 -66 12 -3 22 -2 22 3 0 20 -318 65
-480 68 l-155 3 150 -8z"/>
<path d="M0 1870 c0 -6 23 -10 52 -10 62 0 60 5 -4 13 -29 4 -48 3 -48 -3z"/>
<path d="M58 1843 c6 -2 18 -2 25 0 6 3 1 5 -13 5 -14 0 -19 -2 -12 -5z"/>
<path d="M513 1827 c2 -7 21 -11 41 -11 26 1 36 -2 32 -11 -4 -12 55 -25 113
-25 43 1 0 20 -49 22 -32 1 -41 5 -37 17 3 13 -6 16 -50 18 -38 1 -53 -2 -50
-10z"/>
<path d="M833 1789 c-16 -6 -15 -7 7 -12 14 -3 79 -11 145 -17 66 -6 134 -13
150 -15 17 -2 3 2 -30 9 -99 23 -252 42 -272 35z"/>
<path d="M648 1763 c6 -2 18 -2 25 0 6 3 1 5 -13 5 -14 0 -19 -2 -12 -5z"/>
<path d="M1528 1763 c7 -3 16 -2 19 1 4 3 -2 6 -13 5 -11 0 -14 -3 -6 -6z"/>
<path d="M818 1743 c12 -2 32 -2 45 0 12 2 2 4 -23 4 -25 0 -35 -2 -22 -4z"/>
</g>
</svg>
